<?xml version="1.0" standalone="no"?>
<!DOCTYPE svg PUBLIC "-//W3C//DTD SVG 20010904//EN"
 "http://www.w3.org/TR/2001/REC-SVG-20010904/DTD/svg10.dtd">
<svg version="1.0" xmlns="http://www.w3.org/2000/svg"
 width="1084.000000pt" height="787.000000pt" viewBox="0 0 1084.000000 787.000000"
 preserveAspectRatio="xMidYMid meet">

<g transform="translate(0.000000,787.000000) scale(0.100000,-0.100000)"
fill="#000000" stroke="none">
<path d="M3566 7697 c3 -10 9 -15 12 -12 3 3 0 11 -7 18 -10 9 -11 8 -5 -6z"/>
<path d="M3502 7665 c0 -16 2 -22 5 -12 2 9 2 23 0 30 -3 6 -5 -1 -5 -18z"/>
<path d="M3620 7679 c0 -5 5 -7 10 -4 6 3 10 8 10 11 0 2 -4 4 -10 4 -5 0 -10
-5 -10 -11z"/>
<path d="M3698 7683 c6 -2 18 -2 25 0 6 3 1 5 -13 5 -14 0 -19 -2 -12 -5z"/>
<path d="M3850 7679 c0 -5 5 -7 10 -4 6 3 10 8 10 11 0 2 -4 4 -10 4 -5 0 -10
-5 -10 -11z"/>
<path d="M3888 7650 c2 -22 6 -40 8 -40 2 0 4 18 4 40 0 22 -3 40 -8 40 -4 0
-6 -18 -4 -40z"/>
<path d="M4124 7663 c-14 -23 -14 -25 -1 -15 13 12 16 10 20 -15 3 -20 4 -16
6 15 0 23 -1 42 -3 42 -2 0 -12 -12 -22 -27z"/>
<path d="M4182 7678 c-7 -7 -11 -21 -11 -32 1 -21 1 -21 6 -1 3 11 10 26 15
33 13 15 6 16 -10 0z"/>
<path d="M4649 7682 c9 -6 12 -21 9 -41 -3 -19 -1 -28 4 -23 14 14 5 65 -12
69 -12 4 -13 3 -1 -5z"/>
<path d="M4694 7676 c-3 -8 -4 -27 -2 -43 3 -23 5 -20 9 15 5 43 2 53 -7 28z"/>
<path d="M4794 7663 c-14 -23 -14 -25 -1 -15 13 12 16 10 20 -15 3 -20 4 -16
6 15 0 23 -1 42 -3 42 -2 0 -12 -12 -22 -27z"/>
<path d="M3757 7660 c-3 -11 -1 -20 4 -20 5 0 9 9 9 20 0 11 -2 20 -4 20 -2 0
-6 -9 -9 -20z"/>
<path d="M4090 7644 c0 -19 4 -33 8 -30 8 5 4 66 -4 66 -2 0 -4 -16 -4 -36z"/>
<path d="M4325 7670 c-4 -6 -10 -8 -14 -6 -3 3 -7 -4 -7 -14 0 -11 2 -17 5
-15 2 3 11 -1 20 -8 14 -11 14 -10 2 6 -11 14 -11 20 -1 32 7 8 10 15 7 15 -3
0 -9 -5 -12 -10z"/>
<path d="M4410 7669 c0 -5 5 -7 10 -4 6 3 10 8 10 11 0 2 -4 4 -10 4 -5 0 -10
-5 -10 -11z"/>
<path d="M4450 7635 c0 -27 3 -45 7 -41 7 7 5 77 -2 85 -3 2 -5 -17 -5 -44z"/>
<path d="M4885 7670 c-3 -5 -1 -10 4 -10 6 0 11 5 11 10 0 6 -2 10 -4 10 -3 0
-8 -4 -11 -10z"/>
<path d="M3922 7650 c0 -14 2 -19 5 -12 2 6 2 18 0 25 -3 6 -5 1 -5 -13z"/>
<path d="M4540 7654 c0 -6 7 -19 15 -30 8 -10 14 -14 14 -9 0 6 -6 19 -14 29
-8 11 -15 15 -15 10z"/>
<path d="M3677 7630 c-3 -11 -1 -20 4 -20 5 0 9 9 9 20 0 11 -2 20 -4 20 -2 0
-6 -9 -9 -20z"/>
<path d="M4380 7635 c-7 -9 -11 -17 -9 -20 3 -2 10 5 17 15 14 24 10 26 -8 5z"/>
<path d="M4860 7635 c-7 -9 -11 -17 -9 -20 3 -2 10 5 17 15 14 24 10 26 -8 5z"/>
<path d="M4760 7624 c0 -8 5 -12 10 -9 6 4 8 11 5 16 -9 14 -15 11 -15 -7z"/>
<path d="M3725 7610 c3 -5 8 -10 11 -10 2 0 4 5 4 10 0 6 -5 10 -11 10 -5 0
-7 -4 -4 -10z"/>
<path d="M1812 7455 c0 -16 2 -22 5 -12 2 9 2 23 0 30 -3 6 -5 -1 -5 -18z"/>
<path d="M1368 7433 c6 -2 18 -2 25 0 6 3 1 5 -13 5 -14 0 -19 -2 -12 -5z"/>
<path d="M941 7414 c0 -11 3 -14 6 -6 3 7 2 16 -1 19 -3 4 -6 -2 -5 -13z"/>
<path d="M1290 7419 c0 -5 5 -7 10 -4 6 3 10 8 10 11 0 2 -4 4 -10 4 -5 0 -10
-5 -10 -11z"/>
<path d="M3280 6325 l0 -875 27 0 26 0 -6 278 c-4 152 -7 546 -7 875 0 590 0
597 -20 597 -20 0 -20 -7 -20 -875z"/>
<path d="M5110 6281 c0 -825 0 -831 20 -831 20 0 20 5 18 827 -3 779 -4 828
-20 831 -17 3 -18 -41 -18 -827z"/>
<path d="M5366 7084 c-3 -9 -6 -380 -6 -825 l0 -809 27 0 26 0 -6 263 c-4 144
-7 515 -7 825 0 474 -2 562 -14 562 -8 0 -17 -7 -20 -16z"/>
<path d="M5827 6992 c-14 -3 -17 -15 -17 -63 l0 -59 1125 0 1125 0 0 60 0 60
-1108 2 c-610 2 -1116 2 -1125 0z m1100 -62 c-1 -11 -5 -20 -9 -20 -10 0 -10
4 -2 24 8 22 13 20 11 -4z"/>
<path d="M5810 6660 l0 -60 458 0 c252 0 461 2 463 4 2 2 2 29 1 60 l-4 56
-459 0 -459 0 0 -60z m470 0 c0 -11 -4 -20 -10 -20 -5 0 -10 9 -10 20 0 11 5
20 10 20 6 0 10 -9 10 -20z"/>
<path d="M1450 6060 c0 -603 0 -610 20 -610 20 0 20 7 20 610 0 603 0 610 -20
610 -20 0 -20 -7 -20 -610z"/>
<path d="M3547 6663 c-4 -3 -7 -278 -7 -610 l0 -603 25 0 25 0 0 610 c0 585
-1 610 -18 610 -10 0 -22 -3 -25 -7z"/>
<path d="M794 6595 c-15 -23 -15 -27 0 -50 10 -15 26 -25 41 -25 15 0 31 10
41 25 15 23 15 27 0 50 -10 15 -26 25 -41 25 -15 0 -31 -10 -41 -25z"/>
<path d="M3780 5965 l0 -525 27 0 26 0 -6 257 c-4 141 -7 377 -7 525 0 261 0
268 -20 268 -20 0 -20 -7 -20 -525z"/>
<path d="M5878 6452 l-68 -3 0 -60 0 -59 462 2 462 3 -3 55 c-1 30 -4 56 -5
57 -3 4 -776 8 -848 5z m402 -68 c0 -8 -4 -14 -10 -14 -5 0 -10 9 -10 21 0 11
5 17 10 14 6 -3 10 -13 10 -21z"/>
<path d="M1970 5925 l0 -475 27 0 26 0 -6 257 c-4 141 -7 355 -7 475 0 211 -1
218 -20 218 -20 0 -20 -7 -20 -475z"/>
<path d="M355 6341 c3 -19 12 -42 20 -51 29 -32 11 -70 -31 -70 -28 0 -35 19
-17 46 7 12 11 29 7 38 -9 23 -22 20 -22 -6 0 -13 -4 -35 -7 -50 -6 -23 -3
-29 19 -39 37 -17 76 2 76 37 0 14 9 37 20 51 11 14 20 37 20 52 -1 22 -3 20
-15 -14 -8 -22 -15 -41 -15 -42 0 -2 -6 -3 -14 -3 -8 0 -22 19 -30 43 -15 40
-16 40 -11 8z"/>
<path d="M3020 5880 l0 -430 25 0 25 0 0 168 c0 92 -3 285 -7 430 -6 245 -7
262 -25 262 -17 0 -18 -19 -18 -430z"/>
<path d="M8281 5458 c0 -409 4 -763 8 -788 5 -25 9 -39 10 -32 0 7 15 12 36
12 26 0 39 6 51 25 l16 25 439 0 439 0 0 -60 0 -60 -500 0 -500 0 0 -40 c0
-23 5 -40 11 -40 8 0 8 -4 1 -13 -12 -14 -17 -1104 -6 -1202 l7 -55 48 2 c42
3 49 6 49 24 0 44 2 44 457 44 l433 0 0 -50 0 -50 -765 0 c-503 0 -765 3 -765
10 0 7 -1075 10 -3205 10 l-3206 0 3 -1262 c3 -1104 5 -1267 18 -1293 l15 -30
4110 0 4110 0 15 30 c13 27 15 333 15 2675 l0 2645 -22 46 c-31 67 -76 113
-135 140 l-53 24 -567 3 -568 3 1 -743z m249 -616 c0 -10 -7 -19 -15 -19 -8 0
-15 7 -15 14 0 8 5 11 10 8 6 -3 10 -1 10 4 0 6 2 11 5 11 3 0 5 -8 5 -18z
m-40 -3 c0 -4 -7 -9 -15 -13 -9 -3 -15 0 -15 8 0 7 7 13 15 13 8 0 15 -4 15
-8z m447 -109 c-1 -10 -11 -15 -34 -14 -18 1 -35 3 -38 6 -2 2 -27 3 -55 2
-33 -2 -50 1 -50 9 0 8 27 12 89 12 73 0 89 -3 88 -15z m161 5 c13 -13 -9 -16
-25 -4 -15 12 -16 12 -10 -4 4 -11 3 -16 -3 -12 -6 3 -32 6 -60 7 -27 0 -50 4
-50 8 0 15 135 19 148 5z m72 0 c0 -10 -10 -15 -30 -15 -38 0 -39 17 -2 23 15
2 28 5 30 6 1 0 2 -6 2 -14z m105 -4 c0 -10 -12 -15 -37 -16 -28 0 -38 4 -38
15 0 11 10 15 38 15 25 0 37 -4 37 -14z m-765 -236 c0 -12 -10 -15 -40 -13
-22 1 -40 6 -40 11 0 5 9 7 19 4 10 -2 25 -1 32 4 20 13 29 11 29 -6z m158 2
c7 -5 12 -3 12 4 0 8 4 8 15 -1 8 -7 15 -8 15 -3 0 5 20 9 45 9 28 -1 45 -6
45 -13 0 -9 -36 -12 -134 -11 -95 0 -133 4 -130 12 5 13 112 15 132 3z m166
-2 c-6 -16 -24 -21 -24 -7 0 11 11 22 21 22 5 0 6 -7 3 -15z m85 1 c9 -6 12
-5 7 2 -4 7 3 10 21 8 16 -2 38 -4 51 -5 12 0 22 -5 22 -11 0 -6 -27 -10 -60
-10 -41 0 -60 4 -60 13 0 8 -4 7 -10 -3 -8 -12 -11 -13 -19 -1 -7 11 -9 11
-13 0 -3 -8 -9 -11 -13 -7 -23 22 42 34 74 14z m194 -6 c-3 -12 -11 -16 -24
-13 -27 7 -24 31 5 31 17 0 22 -5 19 -18z m31 5 c-6 -16 -24 -21 -24 -7 0 11
11 22 21 22 5 0 6 -7 3 -15z m89 -2 c-3 -7 -20 -13 -39 -13 -21 0 -34 5 -34
13 0 8 14 12 39 12 27 0 37 -3 34 -12z m45 -1 c2 -7 -6 -12 -17 -12 -21 0 -27
11 -14 24 9 9 26 2 31 -12z m-368 -92 c0 -22 -4 -40 -10 -40 -5 0 -10 14 -10
30 0 17 -5 30 -11 30 -5 0 -7 5 -4 10 3 6 13 10 21 10 10 0 14 -12 14 -40z
m138 -147 c-2 -9 -13 -18 -26 -20 -16 -2 -21 1 -16 9 5 7 3 8 -7 2 -18 -11
-38 -11 -67 -2 -13 4 -21 4 -18 0 2 -4 -13 -8 -35 -8 -26 -1 -37 2 -32 10 3 6
0 5 -8 -1 -17 -17 -49 -17 -49 0 0 8 14 14 35 15 23 2 35 -2 35 -10 0 -10 2
-10 8 0 6 8 32 11 86 9 43 -1 80 1 82 5 9 14 16 9 12 -9z m-568 -8 c0 -5 -11
-11 -23 -11 -14 -1 -24 4 -24 12 0 8 10 13 24 12 13 -1 23 -7 23 -13z m80 -2
c0 -7 -9 -13 -20 -13 -11 0 -20 6 -20 13 0 8 -4 7 -10 -3 -8 -13 -10 -13 -10
2 0 12 8 16 30 16 18 -1 30 -6 30 -15z m131 3 c-12 -14 -58 -15 -81 -1 -9 5
-11 4 -6 -3 4 -7 2 -12 -3 -12 -6 0 -11 6 -11 14 0 9 16 14 56 15 47 1 54 -1
45 -13z m79 5 c0 -5 -13 -11 -30 -13 -20 -3 -30 0 -30 9 0 8 12 13 30 13 17 0
30 -4 30 -9z m370 -7 c0 -8 -11 -12 -30 -11 -39 3 -39 26 0 25 18 -1 30 -6 30
-14z m64 2 c-7 -17 -54 -16 -54 2 0 7 13 12 30 12 21 0 28 -4 24 -14z m76 -3
c0 -8 -14 -13 -35 -13 -26 0 -33 4 -29 15 7 17 64 16 64 -2z m-753 -59 c3 -9
1 -25 -6 -35 -9 -16 -8 -19 6 -19 11 0 14 -3 7 -10 -10 -10 -54 -2 -54 10 0 4
7 13 15 20 8 7 15 16 15 21 0 5 -7 6 -15 3 -8 -4 -15 -2 -15 4 0 10 15 19 33
21 4 1 10 -6 14 -15z m33 -225 c0 -9 -56 -15 -94 -11 -45 5 -13 19 44 18 28 0
50 -3 50 -7z m-80 -244 c0 -8 -2 -15 -4 -15 -2 0 -6 7 -10 15 -3 8 -1 15 4 15
6 0 10 -7 10 -15z m147 -7 c-3 -8 -6 -5 -6 6 -1 11 2 17 5 13 3 -3 4 -12 1
-19z m40 0 c-3 -8 -6 -5 -6 6 -1 11 2 17 5 13 3 -3 4 -12 1 -19z m46 2 c3 -11
1 -20 -4 -20 -5 0 -9 9 -9 20 0 11 2 20 4 20 2 0 6 -9 9 -20z m62 10 c-3 -5
-16 -10 -28 -10 -18 0 -19 2 -7 10 20 13 43 13 35 0z m32 -12 c-3 -8 -6 -5 -6
6 -1 11 2 17 5 13 3 -3 4 -12 1 -19z m20 0 c-3 -8 -6 -5 -6 6 -1 11 2 17 5 13
3 -3 4 -12 1 -19z m73 13 c0 -5 -7 -11 -15 -15 -15 -5 -20 5 -8 17 9 10 23 9
23 -2z m40 -4 c0 -8 -7 -14 -15 -14 -25 0 -17 17 13 26 1 1 2 -5 2 -12z
m-4982 -539 l3 -28 -113 0 c-116 0 -133 4 -133 30 0 26 18 30 130 28 l110 -3
3 -27z m-2140 -35 c3 -10 -21 -13 -98 -13 -91 0 -101 2 -90 15 17 20 181 18
188 -2z m3722 -75 c0 -19 -2 -20 -10 -8 -13 19 -13 30 0 30 6 0 10 -10 10 -22z
m-16 -33 c3 -8 1 -15 -4 -15 -6 0 -10 7 -10 15 0 8 2 15 4 15 2 0 6 -7 10 -15z
m-1454 -55 l0 -30 -345 0 c-294 0 -345 2 -345 14 0 21 11 25 72 32 29 3 55 8
57 10 2 2 130 4 283 4 l278 0 0 -30z m3885 20 c-3 -5 -11 -10 -16 -10 -6 0 -7
5 -4 10 3 6 11 10 16 10 6 0 7 -4 4 -10z m451 3 c-10 -10 -46 -11 -40 -1 3 4
15 8 26 8 12 0 18 -3 14 -7z m-5826 -18 c-7 -8 -17 -15 -23 -15 -6 0 -2 7 9
15 25 19 30 19 14 0z m277 -7 c-3 -8 -6 -5 -6 6 -1 11 2 17 5 13 3 -3 4 -12 1
-19z m-237 2 c0 -5 -2 -10 -4 -10 -3 0 -8 5 -11 10 -3 6 -1 10 4 10 6 0 11 -4
11 -10z m21 -13 c-10 -9 -11 -8 -5 6 3 10 9 15 12 12 3 -3 0 -11 -7 -18z m136
1 c-3 -8 -6 -5 -6 6 -1 11 2 17 5 13 3 -3 4 -12 1 -19z m-959 -60 c8 -8 11
-40 10 -88 l-2 -75 -3 68 -4 67 -42 2 c-23 0 -68 0 -99 -1 -58 -3 -69 4 -46
27 16 16 170 16 186 0z m2182 -128 l0 -30 -352 2 c-345 3 -353 3 -353 23 0 11
5 23 10 27 6 4 164 8 353 8 l342 0 0 -30z m-1389 0 c5 0 9 -4 9 -10 0 -5 -16
-9 -35 -8 -35 1 -46 12 -22 21 6 3 18 4 25 1 8 -2 18 -4 23 -4z m189 3 c0 -3
-7 -11 -15 -19 -13 -14 -15 -13 -15 4 0 10 7 19 15 19 8 0 15 -2 15 -4z m60
-6 c0 -8 -7 -14 -15 -14 -25 0 -17 17 13 26 1 1 2 -5 2 -12z m-210 -7 c0 -5
-4 -10 -10 -10 -5 0 -10 5 -10 10 0 6 5 10 10 10 6 0 10 -4 10 -10z m30 0 c0
-5 -4 -10 -10 -10 -5 0 -10 5 -10 10 0 6 5 10 10 10 6 0 10 -4 10 -10z m70 2
c0 -4 -9 -8 -20 -9 -11 -1 -18 2 -15 8 7 11 35 12 35 1z m-932 -104 c8 -8 11
-40 10 -88 l-2 -75 -3 68 -4 67 -99 0 c-98 0 -112 4 -88 28 16 16 170 16 186
0z m1352 -88 l0 -30 -90 0 c-88 0 -90 1 -90 23 0 13 3 27 7 30 3 4 44 7 90 7
l83 0 0 -30z m-568 6 c6 4 14 0 19 -7 6 -9 12 -10 17 -4 9 12 112 16 112 5 0
-15 -22 -23 -29 -12 -4 7 -20 8 -48 2 -28 -7 -51 -6 -69 0 -21 8 -29 8 -36 -2
-4 -7 -8 -8 -8 -2 0 15 24 37 28 24 2 -5 8 -7 14 -4z m208 -3 c0 -9 -3 -13 -7
-10 -3 4 -12 2 -20 -4 -7 -6 -13 -8 -13 -4 0 7 29 34 38 35 1 0 2 -7 2 -17z
m37 -10 c-16 -16 -17 -16 -17 0 0 10 5 15 10 12 6 -3 10 -1 10 6 0 7 3 9 7 5
4 -3 -1 -14 -10 -23z m5380 -15 c-3 -8 -6 -5 -6 6 -1 11 2 17 5 13 3 -3 4 -12
1 -19z m-990 -20 c-3 -7 -5 -2 -5 12 0 14 2 19 5 13 2 -7 2 -19 0 -25z m290
17 c0 -8 -4 -12 -9 -9 -4 3 -8 9 -8 15 0 5 4 9 8 9 5 0 9 -7 9 -15z m760 -7
c-3 -8 -6 -5 -6 6 -1 11 2 17 5 13 3 -3 4 -12 1 -19z m60 0 c-3 -8 -6 -5 -6 6
-1 11 2 17 5 13 3 -3 4 -12 1 -19z m78 12 c3 -5 1 -10 -4 -10 -6 0 -11 5 -11
10 0 6 2 10 4 10 3 0 8 -4 11 -10z m32 -12 c-3 -8 -6 -5 -6 6 -1 11 2 17 5 13
3 -3 4 -12 1 -19z m40 0 c-3 -8 -6 -5 -6 6 -1 11 2 17 5 13 3 -3 4 -12 1 -19z
m40 0 c-3 -8 -6 -5 -6 6 -1 11 2 17 5 13 3 -3 4 -12 1 -19z m113 18 c0 -3 -4
-8 -10 -11 -5 -3 -10 -1 -10 4 0 6 5 11 10 11 6 0 10 -2 10 -4z m150 -12 c0
-8 -5 -12 -10 -9 -6 4 -8 11 -5 16 9 14 15 11 15 -7z m160 -2 c0 -7 -4 -11 -9
-8 -5 4 -11 3 -14 -1 -2 -5 -2 -3 -1 4 2 6 -2 14 -9 16 -7 3 -2 4 11 4 12 -1
22 -7 22 -15z m155 -1 c-3 -6 -11 -11 -16 -11 -5 0 -4 6 3 14 14 16 24 13 13
-3z m45 4 c-7 -8 -17 -15 -23 -15 -6 0 -2 7 9 15 25 19 30 19 14 0z m-430 1
c0 -3 -4 -8 -10 -11 -5 -3 -10 -1 -10 4 0 6 5 11 10 11 6 0 10 -2 10 -4z m340
0 c0 -3 -4 -8 -10 -11 -5 -3 -10 -1 -10 4 0 6 5 11 10 11 6 0 10 -2 10 -4z
m-150 -16 c0 -5 -5 -10 -11 -10 -5 0 -7 5 -4 10 3 6 8 10 11 10 2 0 4 -4 4
-10z m-4035 -80 c3 -5 1 -10 -4 -10 -6 0 -11 5 -11 10 0 6 2 10 4 10 3 0 8 -4
11 -10z m-3065 -39 c5 -11 9 -50 8 -88 l-2 -68 -3 68 -4 67 -99 0 c-55 0 -100
4 -100 8 0 23 30 32 107 32 71 0 84 -3 93 -19z m1180 -41 c0 -25 -4 -30 -25
-30 -20 0 -25 5 -25 23 0 28 7 37 32 37 13 0 18 -8 18 -30z m-394 7 c9 3 14
-1 14 -11 0 -14 -4 -15 -21 -6 -15 9 -24 8 -35 -1 -8 -6 -14 -8 -14 -4 0 12
35 35 38 25 2 -5 10 -6 18 -3z m194 -1 c0 -8 -7 -16 -15 -20 -9 -3 -15 0 -15
10 0 8 5 12 10 9 6 -3 10 -1 10 4 0 6 2 11 5 11 3 0 5 -6 5 -14z m60 -8 c0
-19 -2 -20 -10 -8 -8 12 -10 12 -10 1 0 -8 -3 -11 -6 -8 -6 6 13 37 22 37 2 0
4 -10 4 -22z m-214 -15 c-10 -10 -19 5 -10 18 6 11 8 11 12 0 2 -7 1 -15 -2
-18z m99 18 c6 -1 3 -5 -5 -11 -9 -5 -19 -5 -27 2 -9 7 -13 7 -13 0 0 -6 -10
-7 -22 -4 -23 6 -23 6 2 12 14 4 32 6 40 4 8 -1 20 -3 25 -3z m4790 -65 c68
-18 109 -40 163 -89 43 -40 102 -120 102 -140 0 -13 -91 -50 -99 -40 -4 4 -20
25 -35 47 -122 165 -387 144 -476 -38 -39 -80 -47 -138 -26 -209 30 -104 123
-187 227 -205 l44 -7 3 -58 3 -57 -45 0 c-153 0 -313 145 -352 316 -30 135 6
257 104 357 110 113 254 159 387 123z m1269 -10 c49 -15 126 -60 126 -74 -1
-4 -15 -24 -33 -44 l-32 -38 -54 27 c-108 54 -243 30 -330 -59 -57 -58 -76
-104 -75 -188 0 -82 20 -141 68 -197 33 -40 138 -93 183 -93 l33 0 0 -61 0
-62 -56 6 c-167 17 -316 161 -342 332 -11 70 6 182 38 245 46 90 147 176 243
205 56 18 173 18 231 1z m-3498 -88 l41 -53 -33 -43 c-105 -136 -45 -322 118
-370 l58 -17 0 -67 0 -68 -37 0 c-43 1 -134 35 -182 69 -49 35 -107 114 -131
178 -33 86 -31 202 4 279 29 63 90 144 109 144 7 0 31 -24 53 -52z m-1928 -40
l-3 -33 -110 0 -110 0 -3 33 -3 32 116 0 116 0 -3 -32z m-1558 3 c5 -11 9 -50
8 -88 l-2 -68 -3 68 -4 67 -99 0 c-55 0 -100 4 -100 8 0 23 30 32 107 32 71 0
84 -3 93 -19z m757 -13 c-3 -8 -6 -5 -6 6 -1 11 2 17 5 13 3 -3 4 -12 1 -19z
m101 9 c6 3 12 0 12 -6 0 -6 -15 -10 -34 -9 -24 1 -33 5 -29 14 3 9 11 11 21
5 10 -4 23 -6 30 -4z m109 -4 c-9 -9 -20 -13 -24 -9 -4 4 -1 11 7 16 25 16 35
11 17 -7z m63 2 c0 -6 -7 -12 -15 -12 -8 0 -15 6 -15 12 0 6 7 12 15 12 8 0
15 -6 15 -12z m-240 -5 c0 -5 -4 -10 -10 -10 -5 0 -10 5 -10 10 0 6 5 10 10
10 6 0 10 -4 10 -10z m130 0 c0 -5 -7 -10 -15 -10 -8 0 -15 5 -15 10 0 6 7 10
15 10 8 0 15 -4 15 -10z m3054 -112 c-6 -10 -4 -10 7 0 16 14 33 16 24 2 -3
-5 -1 -10 4 -10 13 0 15 -27 2 -34 -10 -7 -71 13 -71 23 0 10 22 31 33 31 4 0
5 -6 1 -12z m-2344 -77 c0 -17 -4 -33 -10 -36 -5 -3 -79 -3 -163 1 -153 7
-154 7 -149 30 5 28 19 30 195 32 l127 2 0 -29z m2061 -3 c-3 -21 -6 -26 -9
-15 -3 17 3 47 11 47 2 0 1 -15 -2 -32z m1809 17 c0 -8 -6 -15 -14 -15 -17 0
-28 14 -19 24 12 12 33 6 33 -9z m1250 0 c0 -8 -6 -15 -14 -15 -17 0 -28 14
-19 24 12 12 33 6 33 -9z m-5980 -5 c0 -5 7 -7 15 -4 8 4 15 1 15 -6 0 -6 -10
-10 -22 -9 -13 2 -29 0 -35 -4 -8 -5 -13 -3 -13 7 0 13 13 23 33 25 4 1 7 -3
7 -9z m187 -22 c-3 -7 -5 -2 -5 12 0 14 2 19 5 13 2 -7 2 -19 0 -25z m83 15
c0 -9 -3 -13 -7 -10 -3 4 -12 2 -20 -4 -7 -6 -13 -8 -13 -4 0 7 29 34 38 35 1
0 2 -7 2 -17z m-210 -8 c0 -8 -4 -15 -10 -15 -5 0 -10 7 -10 15 0 8 5 15 10
15 6 0 10 -7 10 -15z m47 1 c0 -8 -8 -11 -21 -8 -19 5 -19 6 0 13 10 4 19 8
20 8 0 1 1 -5 1 -13z m42 -7 c-15 -9 -32 -2 -24 11 3 5 13 6 21 3 12 -4 13 -8
3 -14z m-925 -25 c12 -12 16 -33 14 -87 l-2 -72 -3 68 -4 67 -99 0 c-97 0
-119 8 -82 29 29 17 158 14 176 -5z m5501 -104 c-3 -5 -10 -10 -16 -10 -5 0
-9 5 -9 10 0 6 7 10 16 10 8 0 12 -4 9 -10z m1250 0 c-3 -5 -10 -10 -16 -10
-5 0 -9 5 -9 10 0 6 7 10 16 10 8 0 12 -4 9 -10z m-785 -56 c0 -16 -6 -24 -17
-24 -10 0 -14 4 -8 8 14 10 17 32 4 32 -5 0 -7 5 -4 10 10 16 25 1 25 -26z
m1259 -7 c-11 -19 -12 -19 -21 -3 -5 9 -7 24 -4 33 5 12 9 13 21 3 11 -9 12
-17 4 -33z m-5244 -2 c0 -29 -2 -30 -42 -30 -128 2 -236 7 -225 12 6 2 12 11
12 19 0 8 -6 15 -12 16 -27 4 131 15 197 14 l70 -1 0 -30z m3945 11 c0 -19 -4
-23 -20 -19 -16 4 -18 9 -9 24 14 26 29 24 29 -5z m-5129 -6 c5 0 9 -4 9 -10
0 -14 -27 -12 -34 3 -5 10 -7 10 -12 0 -3 -7 -10 -13 -16 -13 -6 0 -5 6 2 15
7 9 20 13 27 10 8 -3 19 -5 24 -5z m139 -10 c0 -4 -8 -7 -17 -5 -10 2 -20 4
-23 4 -3 1 2 5 10 10 15 10 30 6 30 -9z m46 5 c-11 -8 -22 -12 -25 -9 -6 6 19
24 34 24 6 -1 1 -7 -9 -15z m64 2 c0 -8 -7 -14 -15 -14 -25 0 -17 17 13 26 1
1 2 -5 2 -12z m-160 -5 c0 -4 -9 -8 -20 -8 -11 0 -20 4 -20 8 0 4 9 8 20 8 11
0 20 -4 20 -8z m1160 -197 l0 -35 -92 1 c-92 1 -280 14 -244 17 13 2 17 8 13
22 -6 21 16 24 221 28 l102 2 0 -35z m-1280 -8 c0 -8 -7 -14 -15 -14 -25 0
-17 17 13 26 1 1 2 -5 2 -12z m220 2 c0 -9 -31 -21 -37 -15 -3 3 -3 9 1 14 6
10 36 12 36 1z m54 -2 c-3 -8 -11 -14 -19 -14 -18 0 -20 13 -2 20 21 9 27 7
21 -6z m-194 -7 c0 -12 -21 -17 -47 -12 -35 7 -28 18 12 19 19 1 35 -3 35 -7z
m30 0 c0 -5 -4 -10 -10 -10 -5 0 -10 5 -10 10 0 6 5 10 10 10 6 0 10 -4 10
-10z m50 0 c0 -5 -7 -10 -15 -10 -8 0 -15 5 -15 10 0 6 7 10 15 10 8 0 15 -4
15 -10z m1973 -114 c4 -10 0 -12 -14 -9 -10 3 -16 9 -13 14 8 13 21 11 27 -5z
m32 3 c11 -16 1 -19 -13 -3 -7 8 -8 14 -3 14 5 0 13 -5 16 -11z m90 1 c-3 -5
-11 -10 -16 -10 -6 0 -7 5 -4 10 3 6 11 10 16 10 6 0 7 -4 4 -10z m55 0 c0 -5
-9 -10 -21 -10 -11 0 -17 5 -14 10 3 6 13 10 21 10 8 0 14 -4 14 -10z m100 0
c0 -5 -7 -10 -16 -10 -8 0 -12 5 -9 10 3 6 10 10 16 10 5 0 9 -4 9 -10z m105
-6 c-10 -8 -22 -14 -27 -14 -4 0 -8 6 -8 14 0 8 11 14 27 14 25 0 26 -1 8 -14z
m145 4 c0 -11 -107 -10 -114 0 -3 5 22 8 55 8 32 0 59 -4 59 -8z m70 2 c0 -5
-4 -10 -10 -10 -5 0 -10 5 -10 10 0 6 5 10 10 10 6 0 10 -4 10 -10z m200 0 c0
-5 -10 -10 -22 -9 -22 0 -22 1 -3 9 11 5 21 9 23 9 1 1 2 -3 2 -9z m70 0 c0
-5 -7 -10 -15 -10 -8 0 -15 5 -15 10 0 6 7 10 15 10 8 0 15 -4 15 -10z m75 -6
c-10 -8 -22 -14 -27 -14 -4 0 -8 6 -8 14 0 8 11 14 27 14 25 0 26 -1 8 -14z
m135 6 c0 -5 -4 -10 -10 -10 -5 0 -10 5 -10 10 0 6 5 10 10 10 6 0 10 -4 10
-10z m70 0 c0 -5 -5 -10 -11 -10 -5 0 -7 5 -4 10 3 6 8 10 11 10 2 0 4 -4 4
-10z m90 1 c0 -5 -7 -12 -16 -15 -10 -4 -13 -2 -8 6 5 8 2 9 -10 5 -10 -4 -15
-3 -11 3 8 12 45 13 45 1z m34 -3 c-3 -4 -9 -8 -15 -8 -5 0 -9 4 -9 8 0 5 7 9
15 9 8 0 12 -4 9 -9z m60 4 c2 -4 -7 -9 -22 -10 -21 -1 -24 0 -12 8 18 12 27
12 34 2z m96 -2 c0 -5 -5 -10 -11 -10 -5 0 -7 5 -4 10 3 6 8 10 11 10 2 0 4
-4 4 -10z m120 0 c0 -8 -24 -20 -41 -20 -4 0 -6 6 -3 13 5 14 44 21 44 7z m50
-2 c0 -11 -28 -10 -35 1 -3 6 4 9 15 8 11 -1 20 -5 20 -9z m60 2 c0 -5 -12
-10 -27 -9 l-28 1 25 8 c14 4 26 8 28 9 1 1 2 -3 2 -9z m30 6 c0 -3 -4 -8 -10
-11 -5 -3 -10 -1 -10 4 0 6 5 11 10 11 6 0 10 -2 10 -4z m-3096 -108 c16 -26
-16 -57 -38 -38 -17 13 -21 42 -9 54 11 11 35 3 47 -16z m366 3 c7 -15 6 -23
-5 -35 -20 -20 -45 -10 -45 18 0 40 32 50 50 17z m-757 -3 c7 -21 -4 -38 -24
-38 -14 0 -19 7 -19 25 0 18 5 25 19 25 11 0 21 -6 24 -12z"/>
<path d="M7115 1780 c-7 -11 13 -34 32 -37 6 -1 13 10 16 25 4 22 3 24 -6 11
-12 -16 -42 -14 -31 2 3 5 3 9 0 9 -3 0 -8 -5 -11 -10z"/>
<path d="M8435 1660 c-4 -7 -2 -17 5 -23 10 -9 11 -9 6 1 -4 6 -3 12 3 12 5 0
12 -6 14 -12 4 -8 6 -9 6 -2 1 19 -26 37 -34 24z"/>
<path d="M5917 6182 l-108 -3 3 -57 3 -57 270 0 270 0 3 57 3 57 -168 3 c-92
2 -217 2 -276 0z m173 -63 c0 -6 -4 -7 -10 -4 -5 3 -10 11 -10 16 0 6 5 7 10
4 6 -3 10 -11 10 -16z"/>
<path d="M4580 5775 c0 -318 0 -325 20 -325 20 0 20 7 20 325 0 318 0 325 -20
325 -20 0 -20 -7 -20 -325z"/>
<path d="M4807 6063 c-4 -3 -7 -143 -7 -310 l0 -303 25 0 25 0 0 168 c0 355
-12 477 -43 445z"/>
<path d="M2240 5704 c0 -238 1 -255 18 -252 15 3 17 23 20 223 3 238 -1 285
-23 285 -13 0 -15 -39 -15 -256z"/>
<path d="M5810 5851 l0 -61 55 0 56 0 -3 58 -3 57 -52 3 -53 3 0 -60z m57 -13
c-3 -8 -6 -5 -6 6 -1 11 2 17 5 13 3 -3 4 -12 1 -19z"/>
<path d="M2497 5873 c-4 -3 -7 -100 -7 -215 l0 -208 27 0 26 0 -6 137 c-4 75
-7 171 -7 215 0 58 -3 78 -13 78 -8 0 -17 -3 -20 -7z"/>
<path d="M3354 5640 c0 -102 2 -143 3 -92 2 50 2 134 0 185 -1 50 -3 9 -3 -93z"/>
<path d="M378 5783 c-3 -25 -6 -28 -38 -25 -32 2 -71 -11 -60 -21 3 -2 29 -7
58 -11 l52 -7 0 46 c0 50 -7 60 -12 18z"/>
<path d="M398 5756 c-3 -53 -2 -56 20 -56 13 0 20 4 17 10 -3 6 -1 10 5 10 7
0 10 16 8 43 -2 34 -7 43 -25 45 -19 3 -21 -2 -25 -52z"/>
<path d="M1710 5620 l0 -170 26 0 c27 0 27 0 20 61 -3 34 -6 111 -6 170 0 102
-1 109 -20 109 -19 0 -20 -7 -20 -170z"/>
<path d="M4370 5586 c0 -130 1 -136 20 -136 20 0 20 5 18 132 -3 117 -5 133
-20 136 -16 3 -18 -8 -18 -132z"/>
<path d="M4100 5575 l0 -135 25 0 c24 0 25 3 25 58 0 33 -3 93 -6 135 -6 66
-10 77 -25 77 -18 0 -19 -10 -19 -135z"/>
<path d="M5810 5580 l0 -60 55 0 55 0 0 60 0 60 -55 0 -55 0 0 -60z m57 -2
c-3 -8 -6 -5 -6 6 -1 11 2 17 5 13 3 -3 4 -12 1 -19z"/>
<path d="M2760 5535 c0 -84 1 -86 23 -83 21 3 22 8 22 83 0 75 -1 80 -22 83
-22 3 -23 1 -23 -83z"/>
<path d="M270 5497 c0 -28 25 -65 36 -54 5 4 3 17 -4 27 -18 29 -15 35 8 15
12 -11 22 -37 26 -65 3 -26 10 -53 14 -61 15 -23 37 7 43 57 3 29 13 54 27 68
l21 21 -12 -28 c-13 -28 -6 -48 11 -31 5 5 13 24 16 42 5 25 3 32 -9 32 -8 0
-20 -6 -26 -14 -7 -8 -30 -14 -56 -14 -26 0 -49 6 -56 14 -18 22 -39 17 -39
-9z m120 -36 c0 -13 -2 -13 -9 -2 -5 8 -16 11 -25 8 -9 -4 -16 -2 -16 2 0 12
21 19 38 13 6 -2 12 -12 12 -21z m-20 -87 c0 -8 -4 -12 -10 -9 -5 3 -10 10
-10 16 0 5 5 9 10 9 6 0 10 -7 10 -16z"/>
<path d="M8207 5440 c-6 -23 -3 -24 25 -9 17 9 18 13 7 20 -21 13 -26 11 -32
-11z"/>
<path d="M5833 5363 c15 -2 39 -2 55 0 15 2 2 4 -28 4 -30 0 -43 -2 -27 -4z"/>
<path d="M5844 5304 c3 -9 6 -20 6 -25 0 -5 7 -9 15 -9 8 0 15 7 15 16 0 8 -4
12 -10 9 -5 -3 -10 1 -10 9 0 9 -5 16 -11 16 -6 0 -8 -7 -5 -16z"/>
<path d="M304 5192 c-18 -12 -24 -41 -14 -68 9 -21 15 -25 35 -20 28 7 34 -11
13 -33 -11 -10 -9 -15 6 -26 23 -17 61 -2 52 21 -3 8 -9 21 -13 30 -5 13 -2
15 16 9 13 -4 28 -2 36 5 18 15 20 61 3 78 -22 22 -38 13 -55 -30 -15 -38 -17
-40 -26 -21 -11 25 -47 38 -47 18 0 -8 5 -17 10 -20 6 -3 10 -10 10 -16 0 -16
-19 -10 -30 11 -14 25 5 64 26 56 9 -3 12 -1 9 4 -7 12 -16 12 -31 2z m132
-17 c9 -23 -5 -65 -21 -65 -18 0 -19 12 -2 29 10 11 10 14 0 18 -18 7 -16 33
2 33 9 0 18 -7 21 -15z m-51 -105 c4 -6 -5 -10 -20 -10 -15 0 -24 4 -20 10 3
6 12 10 20 10 8 0 17 -4 20 -10z"/>
<path d="M5846 5030 c3 -14 8 -27 10 -29 5 -6 24 10 24 21 0 6 -3 8 -7 5 -3
-4 -12 1 -20 11 -13 15 -13 15 -7 -8z"/>
<path d="M4330 4605 c-25 -8 -53 -21 -63 -29 -18 -14 -17 -16 5 -50 26 -40 32
-42 81 -21 47 19 118 19 165 -1 174 -72 192 -314 32 -412 -51 -31 -60 -33
-126 -30 -57 3 -79 9 -112 31 l-42 27 -1 -22 c-1 -18 -3 -17 -8 7 -4 17 -16
50 -28 75 -12 25 -24 53 -27 63 -4 11 -15 17 -35 17 -71 0 -77 -25 -30 -118
37 -75 102 -134 178 -163 74 -28 195 -23 258 9 95 49 153 122 179 224 39 150
-42 317 -185 381 -60 27 -179 32 -241 12z m365 -273 c-3 -3 -11 0 -18 7 -9 10
-8 11 6 5 10 -3 15 -9 12 -12z m-468 -258 c-3 -3 -12 -4 -19 -1 -8 3 -5 6 6 6
11 1 17 -2 13 -5z"/>
<path d="M6878 4573 c6 -2 18 -2 25 0 6 3 1 5 -13 5 -14 0 -19 -2 -12 -5z"/>
<path d="M6860 4532 c0 -4 9 -13 20 -20 19 -12 20 -11 8 8 -13 20 -28 27 -28
12z"/>
<path d="M390 4483 c0 -21 5 -29 18 -29 25 0 24 49 0 54 -14 3 -18 -3 -18 -25z"/>
<path d="M2060 4485 c-20 -22 -22 -29 -12 -43 50 -68 62 -185 28 -255 -37 -74
-109 -128 -193 -142 -42 -7 -43 -7 -43 -47 l0 -41 53 6 c234 24 364 300 236
502 -16 25 -32 45 -37 45 -5 0 -19 -11 -32 -25z"/>
<path d="M6916 4494 c-4 -11 -13 -14 -31 -10 -14 4 -25 2 -25 -4 0 -17 57 -12
64 6 4 9 5 19 2 21 -2 2 -6 -4 -10 -13z"/>
<path d="M400 4420 c0 -5 5 -10 10 -10 6 0 10 5 10 10 0 6 -4 10 -10 10 -5 0
-10 -4 -10 -10z"/>
<path d="M4167 4423 c-11 -10 -8 -51 4 -59 18 -10 31 11 23 40 -6 26 -15 32
-27 19z"/>
<path d="M4810 4390 c0 -5 5 -10 10 -10 6 0 10 5 10 10 0 6 -4 10 -10 10 -5 0
-10 -4 -10 -10z"/>
<path d="M5847 4342 c-14 -3 -17 -15 -17 -63 l0 -59 355 0 355 0 0 60 0 60
-267 1 c-148 1 -300 2 -339 2 -39 1 -78 1 -87 -1z m342 -59 c-2 -31 -3 -33 -6
-10 -2 15 -9 27 -14 27 -6 0 -7 5 -4 10 13 22 25 8 24 -27z"/>
<path d="M1731 4304 c0 -11 3 -14 6 -6 3 7 2 16 -1 19 -3 4 -6 -2 -5 -13z"/>
<path d="M1890 4310 c0 -7 -7 -22 -17 -32 -9 -10 -12 -18 -6 -18 13 0 38 48
30 57 -4 3 -7 0 -7 -7z"/>
<path d="M1756 4287 c3 -10 9 -15 12 -12 3 3 0 11 -7 18 -10 9 -11 8 -5 -6z"/>
<path d="M1813 4281 c0 -11 5 -18 9 -15 4 3 5 11 1 19 -7 21 -12 19 -10 -4z"/>
<path d="M754 4215 c-8 -21 2 -45 19 -45 8 0 20 7 27 15 10 12 10 18 0 30 -7
8 -19 15 -27 15 -7 0 -16 -7 -19 -15z"/>
<path d="M5830 4033 l0 -63 710 0 711 0 -3 60 -3 60 -708 2 -707 3 0 -62z
m730 24 c0 -7 -6 -19 -12 -25 -10 -10 -10 -15 2 -22 11 -7 8 -10 -14 -10 l-29
0 21 23 c27 29 28 41 2 34 -11 -3 -18 -1 -14 4 8 14 44 11 44 -4z"/>
<path d="M3910 4070 c0 -5 5 -10 10 -10 6 0 10 5 10 10 0 6 -4 10 -10 10 -5 0
-10 -4 -10 -10z"/>
<path d="M7107 3846 c-9 -22 18 -40 33 -22 6 9 9 20 5 26 -9 15 -32 12 -38 -4z"/>
<path d="M3728 3443 c7 -3 16 -2 19 1 4 3 -2 6 -13 5 -11 0 -14 -3 -6 -6z"/>
<path d="M4716 3437 c3 -10 9 -15 12 -12 3 3 0 11 -7 18 -10 9 -11 8 -5 -6z"/>
<path d="M4750 3433 c0 -11 3 -14 8 -7 4 6 14 14 22 17 10 4 8 6 -7 6 -16 1
-23 -5 -23 -16z"/>
<path d="M4211 3414 c0 -11 3 -14 6 -6 3 7 2 16 -1 19 -3 4 -6 -2 -5 -13z"/>
<path d="M3670 3405 c-7 -9 -11 -17 -9 -20 3 -2 10 5 17 15 14 24 10 26 -8 5z"/>
<path d="M4781 3404 c0 -11 3 -14 6 -6 3 7 2 16 -1 19 -3 4 -6 -2 -5 -13z"/>
<path d="M4695 3390 c-3 -5 -1 -10 4 -10 6 0 11 5 11 10 0 6 -2 10 -4 10 -3 0
-8 -4 -11 -10z"/>
<path d="M3585 3380 c3 -5 8 -10 11 -10 2 0 4 5 4 10 0 6 -5 10 -11 10 -5 0
-7 -4 -4 -10z"/>
<path d="M10582 575 c0 -16 2 -22 5 -12 2 9 2 23 0 30 -3 6 -5 -1 -5 -18z"/>
<path d="M10582 485 c0 -16 2 -22 5 -12 2 9 2 23 0 30 -3 6 -5 -1 -5 -18z"/>
<path d="M480 403 c51 -25 120 -45 215 -64 l140 -29 4647 0 c4639 0 4647 0
4755 20 127 25 188 43 263 79 46 22 51 27 31 29 -13 2 -26 -1 -30 -6 -22 -35
-14 -35 -4991 -38 -2770 -1 -4902 2 -4950 7 -56 6 -89 14 -96 24 -6 8 -22 15
-35 14 -17 0 -1 -12 51 -36z"/>
</g>
</svg>
