<svg width="339" height="87" viewBox="0 0 339 87" fill="none" xmlns="http://www.w3.org/2000/svg">
<path d="M313.785 63.0371C326.164 63.0371 336.199 53.0024 336.199 40.6239C336.199 28.2454 326.164 18.2107 313.785 18.2107C301.407 18.2107 291.372 28.2454 291.372 40.6239C291.372 53.0024 301.407 63.0371 313.785 63.0371Z" stroke="#028ABE" stroke-opacity="0.7" stroke-width="5.60331"/>
<path d="M333.511 67.7641C334.879 66.3964 332.44 61.7399 328.063 57.3634C323.687 52.987 319.031 50.5479 317.663 51.9155C316.295 53.2832 318.734 57.9397 323.111 62.3161C327.487 66.6926 332.144 69.1317 333.511 67.7641Z" fill="#001B4A"/>
<path d="M183.05 18.3511C188.932 18.3511 193.54 19.7557 196.876 22.5648C200.211 25.3738 201.879 29.2365 201.879 34.1524C201.879 39.0683 200.211 42.931 196.876 45.74C193.54 48.5053 188.932 49.8879 183.05 49.8879H170.672V64.4383H165.8V18.3511H183.05ZM182.918 45.6084C187.483 45.6084 190.973 44.6208 193.386 42.6456C195.8 40.6266 197.007 37.7955 197.007 34.1524C197.007 30.4216 195.8 27.5685 193.386 25.5933C190.973 23.5743 187.483 22.5648 182.918 22.5648H170.672V45.6084H182.918ZM218.954 36.5884C220.051 34.2621 221.675 32.5064 223.826 31.3213C226.02 30.1362 228.719 29.5437 231.924 29.5437V34.0866L230.805 34.0207C227.162 34.0207 224.308 35.14 222.246 37.3785C220.183 39.617 219.152 42.7553 219.152 46.7935V64.4383H214.477V29.807H218.954V36.5884ZM258.172 64.7675C254.836 64.7675 251.83 64.0212 249.152 62.5289C246.475 60.9927 244.368 58.8858 242.831 56.2084C241.296 53.531 240.527 50.5024 240.527 47.1226C240.527 43.7429 241.296 40.7143 242.831 38.0369C244.368 35.3595 246.475 33.2745 249.152 31.7822C251.83 30.2899 254.836 29.5437 258.172 29.5437C261.508 29.5437 264.515 30.2899 267.192 31.7822C269.87 33.2745 271.954 35.3595 273.446 38.0369C274.983 40.7143 275.751 43.7429 275.751 47.1226C275.751 50.5024 274.983 53.531 273.446 56.2084C271.954 58.8858 269.87 60.9927 267.192 62.5289C264.515 64.0212 261.508 64.7675 258.172 64.7675ZM258.172 60.6196C260.63 60.6196 262.825 60.0709 264.756 58.9736C266.731 57.8324 268.267 56.2304 269.364 54.1674C270.463 52.1044 271.01 49.7562 271.01 47.1226C271.01 44.4891 270.463 42.1409 269.364 40.0779C268.267 38.0149 266.731 36.4348 264.756 35.3375C262.825 34.1962 260.63 33.6257 258.172 33.6257C255.715 33.6257 253.497 34.1962 251.522 35.3375C249.592 36.4348 248.055 38.0149 246.913 40.0779C245.816 42.1409 245.267 44.4891 245.267 47.1226C245.267 49.7562 245.816 52.1044 246.913 54.1674C248.055 56.2304 249.592 57.8324 251.522 58.9736C253.497 60.0709 255.715 60.6196 258.172 60.6196Z" fill="#001B4A"/>
<path d="M65.8385 76.8213L64.1964 78.4634C59.7915 82.8684 52.6395 82.8355 48.2753 78.3901L9.28882 38.6791C5.02901 34.3402 5.00647 27.3957 9.23803 23.0292L23.6062 8.20263C27.9716 3.69798 35.1842 3.65351 39.6049 8.104L41.1839 9.69374" stroke="#028ABE" stroke-opacity="0.7" stroke-width="2.80165"/>
<path d="M28.2782 38.679C24.0183 34.3401 23.9957 27.3956 28.2273 23.0291L42.6127 8.18482C46.9715 3.68697 54.1708 3.63481 58.5943 8.06901L67.3923 16.8884C71.7168 21.2233 78.7201 21.2848 83.12 17.0263L92.4171 8.02795C96.9579 3.63317 104.232 3.85978 108.491 8.52869L121.787 23.107C125.773 27.4766 125.677 34.1909 121.568 38.4446L83.1833 78.1835C78.8025 82.719 71.5435 82.7486 67.126 78.2488L28.2782 38.679Z" fill="#001B4A"/>
</svg>
