<svg width="65" height="65" viewBox="0 0 65 65" fill="none" xmlns="http://www.w3.org/2000/svg">
<path d="M62.6045 39.3789L60.3625 38.0844C60.739 36.2116 60.9295 34.3363 60.9295 32.5C60.9295 30.637 60.742 28.7599 60.3719 26.91L62.6045 25.6209C63.296 25.2218 63.7907 24.5771 63.9972 23.8059C64.2038 23.0347 64.0979 22.2291 63.6986 21.5376L57.5929 10.9622C57.1936 10.2708 56.5491 9.77608 55.7779 9.5695C55.0065 9.36293 54.2011 9.46889 53.5095 9.86817L51.2751 11.1582C48.4526 8.67515 45.1308 6.75339 41.5949 5.55769V2.98924C41.5949 1.34096 40.2539 0 38.6057 0H26.3943C24.746 0 23.4051 1.34096 23.4051 2.98924V5.55782C19.8879 6.74868 16.5708 8.67299 13.7379 11.1659L11.4904 9.86817C10.7988 9.46889 9.99319 9.3628 9.22197 9.5695C8.45074 9.7762 7.80621 10.2708 7.40693 10.9622L1.30125 21.5376C0.901968 22.2291 0.796009 23.0347 1.00258 23.8059C1.20916 24.5771 1.70385 25.2218 2.39531 25.6209L4.63737 26.9155C4.26111 28.7883 4.07043 30.6636 4.07043 32.5C4.07043 34.3627 4.25793 36.2399 4.62808 38.0899L2.39544 39.3789C0.967985 40.2031 0.477242 42.0348 1.30125 43.4624L7.40693 54.0378C8.23107 55.4651 10.0628 55.956 11.4904 55.1318L13.7246 53.8418C16.5473 56.3249 19.8689 58.2466 23.4051 59.4424V62.0108C23.4051 63.659 24.746 65 26.3943 65H38.6057C40.2539 65 41.5949 63.659 41.5949 62.0108V59.4422C45.1121 58.2513 48.4293 56.327 51.2622 53.8342L53.5096 55.1318C54.9369 55.956 56.7689 55.4651 57.593 54.0378L63.6987 43.4624C64.5227 42.0348 64.032 40.2031 62.6045 39.3789ZM62.0462 42.5084L55.9406 53.0836C55.6425 53.6001 54.9799 53.7775 54.4636 53.4794L51.6153 51.8349C51.2534 51.6259 50.7974 51.6769 50.4906 51.9607C47.5786 54.6539 44.0749 56.686 40.3586 57.8373C39.9592 57.9611 39.6869 58.3304 39.6869 58.7486V62.0108C39.6869 62.607 39.2018 63.092 38.6057 63.092H26.3943C25.7981 63.092 25.3131 62.607 25.3131 62.0108V58.7487C25.3131 58.3306 25.0408 57.9612 24.6415 57.8374C20.9023 56.679 17.3943 54.6495 14.4965 51.9685C14.3158 51.8012 14.0831 51.7147 13.8484 51.7147C13.6848 51.7147 13.5204 51.7567 13.3717 51.8425L10.5363 53.4794C10.0199 53.7774 9.35744 53.5999 9.0594 53.0836L2.95373 42.5084C2.6557 41.992 2.83327 41.3294 3.34945 41.0313L6.18249 39.3956C6.54425 39.1867 6.72805 38.767 6.63609 38.3594C6.19966 36.4251 5.97845 34.4536 5.97845 32.5C5.97845 30.5793 6.20297 28.6097 6.64588 26.6459C6.73772 26.2385 6.55391 25.8186 6.19228 25.6099L3.34945 23.9686C3.09937 23.8242 2.92053 23.5911 2.84573 23.3121C2.77107 23.0332 2.80936 22.7417 2.95373 22.4917L9.0594 11.9162C9.20378 11.6662 9.43694 11.4872 9.71602 11.4125C9.99484 11.3377 10.2864 11.3761 10.5365 11.5205L13.3848 13.165C13.7468 13.3741 14.2027 13.323 14.5095 13.0392C17.4216 10.3459 20.9251 8.31389 24.6415 7.16259C25.0409 7.03883 25.3132 6.66943 25.3132 6.25132V2.98924C25.3132 2.39304 25.7982 1.90802 26.3944 1.90802H38.6058C39.202 1.90802 39.687 2.39304 39.687 2.98924V6.25132C39.687 6.66943 39.9593 7.03883 40.3586 7.16259C44.0977 8.32089 47.6057 10.3504 50.5036 13.0315C50.8104 13.3155 51.2664 13.3665 51.6284 13.1575L54.4637 11.5205C54.714 11.3761 55.0054 11.3377 55.2842 11.4125C55.5631 11.4873 55.7963 11.6662 55.9408 11.9162L62.0465 22.4917C62.1909 22.7417 62.2293 23.0332 62.1545 23.3121C62.0797 23.5911 61.9008 23.8242 61.6508 23.9686L58.8177 25.6043C58.456 25.8131 58.2722 26.233 58.3641 26.6405C58.8006 28.5747 59.0218 30.5461 59.0218 32.5C59.0218 34.4207 58.7972 36.3903 58.3543 38.3539C58.2625 38.7614 58.4463 39.1811 58.8079 39.39L61.6508 41.0313C62.1668 41.3294 62.3444 41.992 62.0462 42.5084Z" fill="#028ABE" fill-opacity="0.7"/>
<path d="M32.5 13.229C21.8738 13.229 13.2289 21.874 13.2289 32.5C13.2289 43.1261 21.8738 51.7711 32.5 51.7711C43.1261 51.7711 51.771 43.1261 51.771 32.5C51.771 21.874 43.1261 13.229 32.5 13.229ZM32.5 49.8631C22.926 49.8631 15.137 42.074 15.137 32.5C15.137 22.9261 22.926 15.137 32.5 15.137C42.0739 15.137 49.863 22.9261 49.863 32.5C49.863 42.074 42.0739 49.8631 32.5 49.8631Z" fill="#028ABE" fill-opacity="0.7"/>
<path d="M36.0616 27.4756H32.5C31.9731 27.4756 31.546 27.9027 31.546 28.4296V36.5705C31.546 37.0974 31.9731 37.5245 32.5 37.5245C33.0268 37.5245 33.454 37.0974 33.454 36.5705V34.4717H36.0616C37.9905 34.4717 39.5597 32.9025 39.5597 30.9736C39.5597 29.0447 37.9905 27.4756 36.0616 27.4756ZM36.0616 32.5636H33.454V29.3836H36.0616C36.9384 29.3836 37.6516 30.0968 37.6516 30.9736C37.6516 31.8504 36.9384 32.5636 36.0616 32.5636Z" fill="#028ABE" fill-opacity="0.7"/>
<path d="M27.2875 28.0947C27.1478 27.7224 26.7919 27.4756 26.3943 27.4756H25.3766C24.979 27.4756 24.623 27.7222 24.4834 28.0947L21.4306 36.2356C21.2455 36.7289 21.4956 37.2788 21.9889 37.4638C22.4822 37.6489 23.0321 37.3988 23.2171 36.9055L23.7481 35.4893H28.0227L28.5538 36.9054C28.6974 37.2884 29.0609 37.5248 29.4471 37.5248C29.5584 37.5248 29.6716 37.5052 29.7819 37.4638C30.2752 37.2789 30.5253 36.7289 30.3402 36.2356L27.2875 28.0947ZM24.4636 33.5813L25.8855 29.7898L27.3073 33.5813H24.4636Z" fill="#028ABE" fill-opacity="0.7"/>
<path d="M41.6585 27.4756C41.1316 27.4756 40.7045 27.9027 40.7045 28.4296V36.5705C40.7045 37.0974 41.1316 37.5245 41.6585 37.5245C42.1853 37.5245 42.6125 37.0974 42.6125 36.5705V28.4296C42.6125 27.9027 42.1853 27.4756 41.6585 27.4756Z" fill="#028ABE" fill-opacity="0.7"/>
<path d="M39.3246 11.1046C39.9867 11.3156 40.6467 11.5607 41.2861 11.833C41.408 11.8849 41.5347 11.9094 41.6594 11.9094C42.0303 11.9094 42.3831 11.6916 42.5376 11.3289C42.7439 10.8441 42.5182 10.2838 42.0335 10.0775C41.3392 9.78196 40.6228 9.51586 39.9038 9.28677C39.402 9.12675 38.8652 9.40405 38.7052 9.90598C38.5453 10.4079 38.8226 10.9446 39.3246 11.1046Z" fill="#028ABE" fill-opacity="0.7"/>
<path d="M12.7774 43.2363C12.525 42.7738 11.9453 42.6034 11.483 42.8557C11.0205 43.1081 10.85 43.6876 11.1024 44.1501C11.4982 44.8757 11.9364 45.5894 12.4048 46.2715C12.5897 46.5408 12.8883 46.6855 13.192 46.6855C13.3781 46.6855 13.5661 46.6312 13.7312 46.5179C14.1656 46.2196 14.2759 45.6257 13.9776 45.1914C13.546 44.5628 13.1422 43.905 12.7774 43.2363Z" fill="#028ABE" fill-opacity="0.7"/>
<path d="M30.5462 54.8671C25.4341 54.4266 20.5816 52.2113 16.8827 48.629C16.5041 48.2625 15.9002 48.2722 15.5337 48.6507C15.1672 49.0292 15.1768 49.6332 15.5553 49.9996C19.5685 53.8863 24.8343 56.29 30.3823 56.768C30.4102 56.7705 30.4378 56.7716 30.4653 56.7716C30.9551 56.7716 31.3718 56.3965 31.4147 55.8995C31.4599 55.3747 31.071 54.9124 30.5462 54.8671Z" fill="#028ABE" fill-opacity="0.7"/>
<path d="M46.2282 12.3751C45.7931 12.0778 45.1995 12.1895 44.9022 12.6244C44.6049 13.0594 44.7166 13.653 45.1515 13.9503C49.5837 16.9794 52.7899 21.4868 54.1793 26.642C54.294 27.0676 54.6792 27.3479 55.0998 27.3479C55.182 27.3479 55.2656 27.3373 55.3486 27.3149C55.8574 27.1777 56.1587 26.6542 56.0215 26.1455C54.5139 20.5512 51.0359 15.6608 46.2282 12.3751Z" fill="#028ABE" fill-opacity="0.7"/>
</svg>
