<svg width="33" height="27" viewBox="0 0 33 27" fill="none" xmlns="http://www.w3.org/2000/svg">
<path d="M17.6155 23.4995L17.1864 23.9895C16.0354 25.304 14.1665 25.2942 13.0261 23.9676L2.83872 12.1172C1.7256 10.8224 1.71972 8.75005 2.82545 7.44701L6.57993 3.02253C7.72064 1.67827 9.60532 1.665 10.7605 2.9931L11.1731 3.4675" stroke="#028ABE" stroke-opacity="0.7" stroke-width="2.80165"/>
<path d="M7.80065 12.1169C6.68752 10.8221 6.68162 8.74972 7.78737 7.44668L11.5463 3.01692C12.6853 1.67469 14.5665 1.65912 15.7224 2.98236L18.0214 5.61421C19.1514 6.9078 20.9814 6.92615 22.1311 5.65535L24.5605 2.97011C25.747 1.65863 27.6479 1.72626 28.7607 3.11954L32.2351 7.46993C33.2765 8.77388 33.2515 10.7775 32.1778 12.0469L22.1477 23.9057C21.0029 25.2591 19.1061 25.2679 17.9518 23.9251L7.80065 12.1169Z" fill="#001B4A"/>
</svg>
