<svg width="65" height="65" viewBox="0 0 65 65" fill="none" xmlns="http://www.w3.org/2000/svg">
<path d="M16.25 39.6094C11.2105 39.6094 7.10938 43.7105 7.10938 48.75C7.10938 53.7895 11.2105 57.8906 16.25 57.8906C21.2895 57.8906 25.3906 53.7895 25.3906 48.75C25.3906 43.7105 21.2895 39.6094 16.25 39.6094ZM16.25 55.8594C12.3297 55.8594 9.14062 52.6703 9.14062 48.75C9.14062 44.8297 12.3297 41.6406 16.25 41.6406C20.1703 41.6406 23.3594 44.8297 23.3594 48.75C23.3594 52.6703 20.1703 55.8594 16.25 55.8594Z" fill="#028ABE" fill-opacity="0.7"/>
<path d="M16.25 43.6719C13.4499 43.6719 11.1719 45.9499 11.1719 48.75C11.1719 51.5501 13.4499 53.8281 16.25 53.8281C19.0501 53.8281 21.3281 51.5501 21.3281 48.75C21.3281 45.9499 19.0501 43.6719 16.25 43.6719ZM16.25 51.7969C14.5702 51.7969 13.2031 50.4298 13.2031 48.75C13.2031 47.0702 14.5702 45.7031 16.25 45.7031C17.9298 45.7031 19.2969 47.0702 19.2969 48.75C19.2969 50.4298 17.9298 51.7969 16.25 51.7969Z" fill="#028ABE" fill-opacity="0.7"/>
<path d="M63.9274 55.8594L50.7812 47.972V51.7969H40.6178C50.1545 47.8105 56.8749 38.3876 56.8749 27.4219C56.8749 12.8619 45.0287 1.01562 30.4687 1.01562C16.2489 1.01562 4.61795 12.3145 4.0817 26.4062H0.878418L8.1249 35.102L15.3714 26.4062H12.2148C12.744 16.7964 20.7288 9.14062 30.4687 9.14062C40.5487 9.14062 48.7499 17.3418 48.7499 27.4219C48.7499 37.1597 41.0911 45.1202 31.4843 45.6513V44.9069L28.6466 44.2091C28.5217 43.8709 28.3805 43.5337 28.2231 43.1986L29.1676 41.6406H36.5624C39.3625 41.6406 41.6405 39.3626 41.6405 36.5625V18.2812C41.6405 15.4812 39.3625 13.2031 36.5624 13.2031H24.3749C21.5748 13.2031 19.2968 15.4812 19.2968 18.2812V31.4844H21.328V18.2812C21.328 16.6014 22.6951 15.2344 24.3749 15.2344H36.5624C38.2422 15.2344 39.6093 16.6014 39.6093 18.2812V36.5625C39.6093 37.8848 38.7572 39.002 37.578 39.4225V17.2656H23.3593V35.8323L21.8003 36.7758C21.4651 36.6194 21.1279 36.4782 20.7897 36.3533L20.093 33.5156H12.4078L11.7101 36.3533C11.3729 36.4782 11.0357 36.6194 10.6995 36.7768L8.19498 35.2605L2.75936 40.6961L4.27568 43.2006C4.11928 43.5368 3.97811 43.874 3.85217 44.2112L1.01553 44.9069V52.5921L3.85318 53.2898C3.97811 53.628 4.11928 53.9652 4.27568 54.3004L2.76037 56.8049L8.19498 62.2395L10.6995 60.7232C11.0357 60.8806 11.3729 61.0208 11.709 61.1467L12.4068 63.9844H20.092L20.7897 61.1467C21.1269 61.0218 21.4641 60.8806 21.8003 60.7232L24.3048 62.2395L29.7404 56.8039L28.2241 54.2994C28.2972 54.143 28.3551 53.9845 28.4222 53.8271H52.8124V51.5582L59.9786 55.8594L52.8124 60.1595V57.8906H38.5937V59.9219H50.7812V63.7467L63.9274 55.8594ZM50.7812 27.4219C50.7812 16.2216 41.669 7.10938 30.4687 7.10938C19.2683 7.10938 10.1562 16.2216 10.1562 27.4219V28.4375H11.0347L8.1249 31.9292L5.21514 28.4375H6.09365V27.4219C6.09365 13.9821 17.0289 3.04688 30.4687 3.04688C43.9084 3.04688 54.8437 13.9821 54.8437 27.4219C54.8437 40.5214 44.4548 51.2362 31.4843 51.7715V47.6836C42.2113 47.1484 50.7812 38.2789 50.7812 27.4219ZM25.3905 35.5469H35.5468V39.6094H28.6547L25.3905 36.3452V35.5469ZM35.5468 33.5156H25.3905V27.4219H35.5468V33.5156ZM35.5468 19.2969V25.3906H25.3905V19.2969H35.5468ZM23.994 59.6771L21.8887 58.4025L21.3829 58.6645C20.7999 58.9662 20.2098 59.214 19.6289 59.3978L19.0855 59.5705L18.5005 61.9531H13.9983L13.4133 59.5715L12.8699 59.3988C12.289 59.214 11.6989 58.9682 11.1149 58.6655L10.6091 58.4035L8.50576 59.6781L5.32178 56.4941L6.59639 54.3887L6.33436 53.883C6.03271 53.302 5.78592 52.712 5.60107 52.129L5.42842 51.5856L3.04678 51.0006V46.4984L5.42842 45.9134L5.60107 45.37C5.78592 44.7891 6.03271 44.199 6.33436 43.616L6.59639 43.1102L5.32178 41.0048L8.50475 37.8219L10.6101 39.0965L11.1159 38.8345C11.6989 38.5328 12.289 38.285 12.8699 38.1012L13.4133 37.9285L13.9993 35.5469H18.5015L19.0865 37.9285L19.6299 38.1012C20.2129 38.286 20.8029 38.5328 21.3839 38.8345L21.8897 39.0965L23.9951 37.8219L27.178 41.0048L25.9034 43.1102L26.1665 43.617C26.4671 44.197 26.7139 44.787 26.8997 45.371L27.0724 45.9144L29.453 46.4994V51.0016L27.0714 51.5866L26.8987 52.13C26.7129 52.714 26.4671 53.303 26.1654 53.884L25.9024 54.3908L27.177 56.4962L23.994 59.6771Z" fill="#028ABE" fill-opacity="0.7"/>
<path d="M34.5312 57.8906H36.5625V59.9219H34.5312V57.8906Z" fill="#028ABE" fill-opacity="0.7"/>
<path d="M30.4688 57.8906H32.5V59.9219H30.4688V57.8906Z" fill="#028ABE" fill-opacity="0.7"/>
<path d="M27.4219 21.3281H29.4531V23.3594H27.4219V21.3281Z" fill="#028ABE" fill-opacity="0.7"/>
<path d="M31.4844 21.3281H33.5156V23.3594H31.4844V21.3281Z" fill="#028ABE" fill-opacity="0.7"/>
<path d="M31.4844 29.4531H33.5156V31.4844H31.4844V29.4531Z" fill="#028ABE" fill-opacity="0.7"/>
<path d="M27.4219 29.4531H29.4531V31.4844H27.4219V29.4531Z" fill="#028ABE" fill-opacity="0.7"/>
</svg>
