<svg width="65" height="65" viewBox="0 0 65 65" fill="none" xmlns="http://www.w3.org/2000/svg">
<g clip-path="url(#clip0)">
<path d="M43.6027 5.59837C43.6027 6.15825 43.149 6.6125 42.5886 6.6125C42.0287 6.6125 41.5745 6.15825 41.5745 5.59837C41.5745 5.03848 42.0287 4.58423 42.5886 4.58423C43.149 4.58423 43.6027 5.03848 43.6027 5.59837Z" fill="#028ABE" fill-opacity="0.7"/>
<path d="M48.4647 5.59837C48.4647 6.15825 48.0109 6.6125 47.4505 6.6125C46.8907 6.6125 46.4364 6.15825 46.4364 5.59837C46.4364 5.03848 46.8907 4.58423 47.4505 4.58423C48.0109 4.58423 48.4647 5.03848 48.4647 5.59837Z" fill="#028ABE" fill-opacity="0.7"/>
<path d="M53.3266 5.59837C53.3266 6.15825 52.8729 6.6125 52.3125 6.6125C51.7526 6.6125 51.2983 6.15825 51.2983 5.59837C51.2983 5.03848 51.7526 4.58423 52.3125 4.58423C52.8729 4.58423 53.3266 5.03848 53.3266 5.59837Z" fill="#028ABE" fill-opacity="0.7"/>
<path d="M13.0414 31.6247L19.4367 27.4422C19.5344 27.3693 19.6802 27.345 19.8017 27.345C20.312 27.345 20.9691 27.8801 20.9691 28.5609C20.9691 28.8525 20.8228 29.1203 20.6041 29.2661L15.4972 32.622L20.6041 35.9778C20.8228 36.0993 20.9691 36.3666 20.9691 36.683C20.9691 37.3639 20.312 37.8746 19.8017 37.8746C19.6802 37.8746 19.5344 37.8503 19.4367 37.7769L13.0414 33.5944C12.6769 33.3514 12.5063 32.9379 12.5063 32.622C12.5063 32.3056 12.6769 31.8682 13.0414 31.6247Z" fill="#028ABE" fill-opacity="0.7"/>
<path d="M34.4895 21.5577C34.4895 21.7035 34.4652 21.825 34.3918 21.9465L25.4679 39.7467C25.3221 40.0388 25.0057 40.2089 24.665 40.2089C24.1061 40.2089 23.7168 39.7467 23.7168 39.3093C23.7168 39.1873 23.7411 39.0658 23.7897 38.9443L32.7384 21.0712C32.8842 20.7553 33.152 20.6333 33.4679 20.6333C33.9544 20.6333 34.4895 20.9983 34.4895 21.5577Z" fill="#028ABE" fill-opacity="0.7"/>
<path d="M45.1401 33.5944L38.7449 37.7769C38.6477 37.8503 38.5262 37.8746 38.4047 37.8746C37.8696 37.8746 37.2373 37.3639 37.2373 36.683C37.2373 36.3666 37.3831 36.0993 37.5775 35.9778L42.7087 32.622L37.5775 29.2661C37.3831 29.1203 37.2373 28.8525 37.2373 28.5609C37.2373 27.8801 37.8696 27.345 38.4047 27.345C38.5262 27.345 38.6477 27.3693 38.7449 27.4422L45.1401 31.6247C45.5051 31.8682 45.6752 32.3056 45.6752 32.622C45.6752 32.9379 45.5294 33.3514 45.1401 33.5944Z" fill="#028ABE" fill-opacity="0.7"/>
<path d="M5.86707 6.55054H26.5708C27.097 6.55054 27.523 6.12405 27.523 5.59839C27.523 5.07272 27.097 4.64624 26.5708 4.64624H5.86707C5.3409 4.64624 4.91492 5.07272 4.91492 5.59839C4.91492 6.12405 5.3409 6.55054 5.86707 6.55054Z" fill="#028ABE" fill-opacity="0.7"/>
<path d="M36.36 56.7162H3.07067C2.42747 56.7162 1.90429 56.193 1.90429 55.5498V10.8159H56.3352V36.625C56.3352 37.1506 56.7612 37.5771 57.2874 37.5771C57.8135 37.5771 58.2395 37.1506 58.2395 36.625V3.45165C58.2395 1.75862 56.8619 0.380981 55.1689 0.380981H3.07067C1.37763 0.380981 0 1.75862 0 3.45165V55.5498C0 57.2429 1.37763 58.6205 3.07067 58.6205H36.36C36.8857 58.6205 37.3122 58.194 37.3122 57.6684C37.3122 57.1427 36.8857 56.7162 36.36 56.7162ZM3.07067 2.28527H55.1689C55.812 2.28527 56.3352 2.80845 56.3352 3.45165V8.9116H1.90429V3.45165C1.90429 2.80845 2.42747 2.28527 3.07067 2.28527Z" fill="#028ABE" fill-opacity="0.7"/>
<path d="M50.5475 43.3722C46.8237 43.3722 43.7947 46.4012 43.7947 50.125C43.7947 53.8488 46.8237 56.8778 50.5475 56.8778C54.2713 56.8778 57.3003 53.8488 57.3003 50.125C57.3003 46.4012 54.2713 43.3722 50.5475 43.3722ZM50.5475 54.9735C47.874 54.9735 45.699 52.7985 45.699 50.125C45.699 47.4516 47.874 45.2765 50.5475 45.2765C53.2209 45.2765 55.396 47.4516 55.396 50.125C55.396 52.7985 53.2209 54.9735 50.5475 54.9735Z" fill="#028ABE" fill-opacity="0.7"/>
<path d="M62.735 47.1119H61.8608C61.7035 47.1119 61.5627 47.0107 61.5191 46.8659C61.2905 46.1121 60.983 45.3792 60.6056 44.6874C60.5307 44.551 60.557 44.377 60.6691 44.2649L61.2959 43.6376C62.1786 42.7548 62.1786 41.3177 61.2959 40.435L60.2376 39.3767C59.3549 38.494 57.9183 38.4935 57.0345 39.3767L56.4082 40.0035C56.2956 40.1156 56.1216 40.1419 55.9852 40.0675C55.2929 39.6896 54.56 39.3821 53.8067 39.1535C53.6619 39.1099 53.5607 38.9695 53.5607 38.8118V37.938C53.5607 36.6889 52.5446 35.6727 51.2954 35.6727H49.7997C48.5505 35.6727 47.5344 36.6889 47.5344 37.938V38.7553C47.5344 38.9155 47.4307 39.0568 47.282 39.099C46.5054 39.3197 45.7491 39.6241 45.035 40.003C44.9011 40.0744 44.73 40.0462 44.6194 39.9356L44.0605 39.3767C43.6326 38.9492 43.0638 38.7132 42.4587 38.7132C41.8537 38.7132 41.2849 38.9492 40.8574 39.3767L39.7997 40.435C39.3717 40.8624 39.1361 41.4312 39.1361 42.0363C39.1361 42.6413 39.3717 43.2101 39.7997 43.638L40.301 44.1399C40.4151 44.2535 40.4409 44.428 40.3645 44.5639C39.9549 45.2924 39.6246 46.066 39.3826 46.8644C39.338 47.0102 39.1947 47.1124 39.0335 47.1124H38.3605C37.1113 47.1124 36.0952 48.128 36.0952 49.3772V50.8734C36.0952 52.1221 37.1113 53.1382 38.3605 53.1382H38.9809C39.1426 53.1382 39.2844 53.2409 39.3266 53.3881C39.5601 54.2114 39.8874 55.0108 40.299 55.7631C40.3715 55.8965 40.3442 56.068 40.2316 56.1801L39.7997 56.6126C38.9165 57.4958 38.9165 58.9324 39.7997 59.8156L40.8574 60.8734C41.7407 61.7566 43.1773 61.7566 44.0605 60.8734L44.493 60.441C44.605 60.3289 44.7766 60.3011 44.91 60.374C45.6623 60.7856 46.4612 61.1124 47.2849 61.3465C47.4322 61.3882 47.5349 61.5305 47.5349 61.6917V62.3126C47.5349 63.5613 48.551 64.5774 49.7997 64.5774H51.2959C52.5446 64.5774 53.5607 63.5618 53.5607 62.3126V61.6396C53.5607 61.4779 53.6629 61.3346 53.8086 61.2905C54.6066 61.0485 55.3807 60.7182 56.1092 60.3086C56.2451 60.2317 56.4191 60.258 56.5332 60.3716L57.035 60.8734C57.9183 61.7561 59.3549 61.7566 60.2381 60.8734L61.2959 59.8156C62.1791 58.9324 62.1791 57.4958 61.2959 56.6126L60.737 56.0537C60.6264 55.9426 60.5987 55.772 60.6696 55.6381C61.0489 54.924 61.3529 54.1677 61.5741 53.3906C61.6163 53.2423 61.7576 53.1382 61.9178 53.1382H62.735C63.9842 53.1382 65.0004 52.1226 65.0004 50.8734V49.3772C64.9999 48.128 63.9837 47.1119 62.735 47.1119ZM63.0956 50.8729C63.0956 51.0717 62.9339 51.2339 62.735 51.2339H61.9173C60.9101 51.2339 60.016 51.9064 59.7422 52.8694C59.5577 53.5181 59.3038 54.1484 58.9874 54.7445C58.5203 55.6247 58.682 56.6919 59.3906 57.4001L59.9495 57.959C60.0899 58.0993 60.0899 58.3284 59.9495 58.4688L58.8917 59.527C58.7509 59.6674 58.5218 59.6674 58.3814 59.527L57.8796 59.0252C57.1645 58.3101 56.0526 58.1553 55.1754 58.6488C54.5674 58.9904 53.9217 59.2662 53.2562 59.468C52.314 59.7537 51.6564 60.6463 51.6564 61.6396V62.3126C51.6564 62.5114 51.4942 62.6731 51.2954 62.6731H49.7992C49.6004 62.6731 49.4387 62.5114 49.4387 62.3126V61.6917C49.4387 60.683 48.7667 59.7879 47.8052 59.5146C47.1178 59.3197 46.4508 59.0465 45.823 58.7033C45.4888 58.5208 45.1203 58.4316 44.7533 58.4316C44.1652 58.4316 43.5805 58.6597 43.1461 59.0946L42.7136 59.527C42.5733 59.6674 42.3442 59.6674 42.2038 59.527L41.1456 58.4692C41.0052 58.3284 41.0052 58.0998 41.1456 57.959L41.578 57.5265C42.2842 56.8203 42.4449 55.7194 41.9693 54.8496C41.6261 54.2218 41.3529 53.5548 41.158 52.8679C40.8847 51.9059 39.9896 51.2339 38.9809 51.2339H38.36C38.1612 51.2339 37.999 51.0722 37.999 50.8734V49.3772C37.999 49.1784 38.1612 49.0162 38.36 49.0162H39.033C40.0263 49.0162 40.9189 48.3586 41.2046 47.4164C41.4064 46.7509 41.6821 46.1052 42.0238 45.4972C42.5173 44.6199 42.362 43.5081 41.6474 42.793L41.1456 42.2912C41.0538 42.1994 41.0399 42.0918 41.0399 42.0363C41.0399 41.9802 41.0538 41.8731 41.1456 41.7809L42.2033 40.7231C42.2956 40.6313 42.4027 40.6175 42.4587 40.6175C42.5143 40.6175 42.6214 40.6313 42.7136 40.7231L43.2725 41.282C43.9807 41.9906 45.0474 42.1523 45.9281 41.6852C46.5237 41.3688 47.1545 41.1149 47.8027 40.9304C48.7662 40.6566 49.4387 39.762 49.4387 38.7548V37.9376C49.4387 37.7387 49.6004 37.577 49.7992 37.577H51.2954C51.4942 37.577 51.6564 37.7387 51.6564 37.9376V38.8118C51.6564 39.8166 52.2986 40.6864 53.2547 40.976C53.883 41.1664 54.495 41.4228 55.0722 41.7387C55.9455 42.2153 57.0484 42.0556 57.7546 41.3499L58.3809 40.7231C58.5218 40.5822 58.7509 40.5822 58.8912 40.7231L59.9495 41.7809C60.0899 41.9217 60.0899 42.1503 59.9495 42.2912L59.3227 42.918C58.617 43.6237 58.4573 44.7266 58.9339 45.5999C59.2493 46.1776 59.5062 46.7891 59.6966 47.4179C59.9862 48.374 60.8555 49.0162 61.8608 49.0162H62.735C62.9339 49.0162 63.0956 49.1779 63.0956 49.3767V50.8729Z" fill="#028ABE" fill-opacity="0.7"/>
</g>
<defs>
<clipPath id="clip0">
<rect width="65" height="65" fill="white"/>
</clipPath>
</defs>
</svg>
