<svg width="65" height="65" viewBox="0 0 65 65" fill="none" xmlns="http://www.w3.org/2000/svg">
<g clip-path="url(#clip0)">
<path d="M32.5 39.8387C29.6098 39.8387 27.2581 42.1904 27.2581 45.0807C27.2581 47.9709 29.6098 50.3226 32.5 50.3226C35.3902 50.3226 37.7419 47.9709 37.7419 45.0807C37.7419 42.1904 35.3902 39.8387 32.5 39.8387ZM32.5 48.2258C30.7662 48.2258 29.3548 46.8145 29.3548 45.0807C29.3548 43.3468 30.7662 41.9355 32.5 41.9355C34.2338 41.9355 35.6452 43.3468 35.6452 45.0807C35.6452 46.8145 34.2338 48.2258 32.5 48.2258Z" fill="#028ABE" fill-opacity="0.7"/>
<path d="M31.4517 4.1936H39.8388V6.29038H31.4517V4.1936Z" fill="#028ABE" fill-opacity="0.7"/>
<path d="M31.4517 8.38708H39.8388V10.4839H31.4517V8.38708Z" fill="#028ABE" fill-opacity="0.7"/>
<path d="M25.1613 12.5807H39.8387V14.6775H25.1613V12.5807Z" fill="#028ABE" fill-opacity="0.7"/>
<path d="M25.1613 16.7742H39.8387V18.8709H25.1613V16.7742Z" fill="#028ABE" fill-opacity="0.7"/>
<path d="M25.1613 20.9678H39.8387V23.0645H25.1613V20.9678Z" fill="#028ABE" fill-opacity="0.7"/>
<path d="M65 33.5484V25.1613H50.3226V33.5484H56.6129V44.0323H44.0323V42.2278L41.4584 41.3693L42.6716 38.9434L38.6373 34.909L36.2103 36.1233L35.3529 33.5484H33.5484V27.2581H44.0323V14.6774H56.6129V20.5336L54.209 18.1297L52.7265 19.6122L57.6613 24.547L62.5961 19.6122L61.1136 18.1297L58.7097 20.5336V12.5806H44.0323V0H27.8724L20.9677 6.90461V12.5806H6.29032V20.5336L3.8864 18.1297L2.40392 19.6122L7.33871 24.547L12.2735 19.6122L10.791 18.1297L8.3871 20.5336V14.6774H20.9677V27.2581H31.4516V33.5484H29.6471L28.7897 36.1233L26.3627 34.909L22.3284 38.9434L23.5416 41.3693L20.9677 42.2278V44.0323H8.3871V33.5484H14.6774V25.1613H0V33.5484H6.29032V50.4715C4.48585 50.9399 3.14516 52.5683 3.14516 54.5161C3.14516 56.8289 5.02591 58.7097 7.33871 58.7097C9.65151 58.7097 11.5323 56.8289 11.5323 54.5161C11.5323 52.5683 10.1916 50.9399 8.3871 50.4715V46.129H14.6774V58.9027C13.4601 59.3368 12.5806 60.4901 12.5806 61.8548C12.5806 63.5887 13.992 65 15.7258 65C17.4596 65 18.871 63.5887 18.871 61.8548C18.871 60.4901 17.9915 59.3368 16.7742 58.9027V46.129H20.9677V47.9335L23.5416 48.792L22.3284 51.2179L26.3627 55.2523L28.7897 54.038L29.6471 56.6129H35.3518L36.2093 54.038L38.6362 55.2523L42.6706 51.2179L41.4574 48.792L44.0323 47.9335V46.129H48.2258V58.9027C47.0085 59.3368 46.129 60.4901 46.129 61.8548C46.129 63.5887 47.5404 65 49.2742 65C51.008 65 52.4194 63.5887 52.4194 61.8548C52.4194 60.4901 51.5399 59.3368 50.3226 58.9027V46.129H56.6129V50.4715C54.8084 50.9399 53.4677 52.5683 53.4677 54.5161C53.4677 56.8289 55.3485 58.7097 57.6613 58.7097C59.9741 58.7097 61.8548 56.8289 61.8548 54.5161C61.8548 52.5683 60.5141 50.9399 58.7097 50.4715V33.5484H65ZM27.2581 3.57926V6.29032H24.547L27.2581 3.57926ZM23.0645 8.3871H29.3548V2.09677H41.9355V25.1613H23.0645V8.3871ZM2.09677 27.2581H12.5806V31.4516H2.09677V27.2581ZM9.43548 54.5161C9.43548 55.6725 8.49511 56.6129 7.33871 56.6129C6.18231 56.6129 5.24194 55.6725 5.24194 54.5161C5.24194 53.3597 6.18231 52.4194 7.33871 52.4194C8.49511 52.4194 9.43548 53.3597 9.43548 54.5161ZM15.7258 62.9032C15.1474 62.9032 14.6774 62.4323 14.6774 61.8548C14.6774 61.2774 15.1474 60.8064 15.7258 60.8064C16.3043 60.8064 16.7742 61.2774 16.7742 61.8548C16.7742 62.4323 16.3043 62.9032 15.7258 62.9032ZM41.9355 46.4213L39.5305 47.2235L39.3534 47.6857C39.3007 47.8199 39.2485 47.9535 39.1906 48.083L38.9874 48.537L40.1208 50.8038L38.2242 52.7004L35.9574 51.567L35.5039 51.7703C35.3749 51.8281 35.2438 51.8803 35.1107 51.931L34.6439 52.1071L33.8407 54.5161H31.1583L30.3551 52.1071L29.8882 51.931C29.7551 51.8803 29.6241 51.8281 29.4951 51.7703L29.0415 51.567L26.7748 52.7004L24.8782 50.8038L26.0116 48.537L25.8083 48.083C25.7495 47.9519 25.6983 47.8199 25.6456 47.6857L25.4684 47.2235L23.0645 46.4213V43.7389L25.4695 42.9368L25.6466 42.4745C25.6993 42.3404 25.7515 42.2068 25.8094 42.0768L26.0126 41.6232L24.8792 39.3565L26.7758 37.4599L29.0426 38.5932L29.4961 38.39C29.6251 38.3322 29.7562 38.2799 29.8893 38.2293L30.3561 38.0532L31.1593 35.6452H33.8417L34.6449 38.0542L35.1118 38.2303C35.2448 38.281 35.3759 38.3332 35.5049 38.391L35.9584 38.5943L38.2252 37.4609L40.1218 39.3575L38.9884 41.6242L39.1917 42.0783C39.2505 42.2094 39.3017 42.3414 39.3544 42.4755L39.5316 42.9378L41.9355 43.74V46.4213ZM49.2742 62.9032C48.6957 62.9032 48.2258 62.4323 48.2258 61.8548C48.2258 61.2774 48.6957 60.8064 49.2742 60.8064C49.8526 60.8064 50.3226 61.2774 50.3226 61.8548C50.3226 62.4323 49.8526 62.9032 49.2742 62.9032ZM59.7581 54.5161C59.7581 55.6725 58.8177 56.6129 57.6613 56.6129C56.5049 56.6129 55.5645 55.6725 55.5645 54.5161C55.5645 53.3597 56.5049 52.4194 57.6613 52.4194C58.8177 52.4194 59.7581 53.3597 59.7581 54.5161ZM52.4194 27.2581H62.9032V31.4516H52.4194V27.2581Z" fill="#028ABE" fill-opacity="0.7"/>
</g>
<defs>
<clipPath id="clip0">
<rect width="65" height="65" fill="white"/>
</clipPath>
</defs>
</svg>
