<svg width="65" height="65" viewBox="0 0 65 65" fill="none" xmlns="http://www.w3.org/2000/svg">
<g clip-path="url(#clip0)">
<path d="M51.3256 34.8658H18.23C17.7042 34.8658 17.278 35.2922 17.278 35.8179C17.278 36.3436 17.7043 36.7699 18.23 36.7699H51.3257C51.8515 36.7699 52.2777 36.3436 52.2777 35.8179C52.2777 35.2922 51.8514 34.8658 51.3256 34.8658Z" fill="#028ABE" fill-opacity="0.7"/>
<path d="M51.3256 41.001H18.23C17.7042 41.001 17.278 41.4273 17.278 41.953C17.278 42.4787 17.7043 42.905 18.23 42.905H51.3257C51.8515 42.905 52.2777 42.4787 52.2777 41.953C52.2777 41.4273 51.8514 41.001 51.3256 41.001Z" fill="#028ABE" fill-opacity="0.7"/>
<path d="M51.3256 47.1359H18.23C17.7042 47.1359 17.278 47.5622 17.278 48.0879C17.278 48.6136 17.7043 49.0399 18.23 49.0399H51.3257C51.8515 49.0399 52.2777 48.6136 52.2777 48.0879C52.2777 47.5622 51.8514 47.1359 51.3256 47.1359Z" fill="#028ABE" fill-opacity="0.7"/>
<path d="M51.3256 53.2709H18.23C17.7042 53.2709 17.278 53.6972 17.278 54.2229C17.278 54.7486 17.7043 55.1749 18.23 55.1749H51.3257C51.8515 55.1749 52.2777 54.7486 52.2777 54.2229C52.2777 53.6972 51.8514 53.2709 51.3256 53.2709Z" fill="#028ABE" fill-opacity="0.7"/>
<path d="M51.3256 22.306H39.1644C38.6386 22.306 38.2124 22.7323 38.2124 23.2581C38.2124 23.7838 38.6387 24.2101 39.1644 24.2101H51.3256C51.8515 24.2101 52.2777 23.7838 52.2777 23.2581C52.2777 22.7323 51.8515 22.306 51.3256 22.306Z" fill="#028ABE" fill-opacity="0.7"/>
<path d="M51.3256 17.2732H39.1644C38.6386 17.2732 38.2124 17.6995 38.2124 18.2252C38.2124 18.7509 38.6387 19.1772 39.1644 19.1772H51.3256C51.8515 19.1772 52.2777 18.7509 52.2777 18.2252C52.2777 17.6995 51.8515 17.2732 51.3256 17.2732Z" fill="#028ABE" fill-opacity="0.7"/>
<path d="M57.9197 52.9496C58.4456 52.9496 58.8717 52.5233 58.8717 51.9976V9.29906C58.8717 7.23455 57.1921 5.55496 55.1276 5.55496H53.3168V3.7441C53.3169 1.67959 51.6373 0 49.5728 0H9.8724C7.80789 0 6.1283 1.67959 6.1283 3.7441V55.7009C6.1283 57.7654 7.80789 59.445 9.8724 59.445H11.6831V61.2558C11.6831 63.3203 13.3627 64.9999 15.4272 64.9999H55.1275C57.192 64.9999 58.8716 63.3203 58.8716 61.2558V56.4484C58.8716 55.9226 58.4453 55.4964 57.9196 55.4964C57.3939 55.4964 56.9676 55.9227 56.9676 56.4484V61.2559C56.9676 62.2705 56.1421 63.0958 55.1276 63.0958H15.4274C14.4127 63.0958 13.5874 62.2705 13.5874 61.2559V9.29906C13.5874 8.28445 14.4129 7.45913 15.4274 7.45913H55.1276C56.1422 7.45913 56.9676 8.28458 56.9676 9.29906V51.9976C56.9676 52.5233 57.3939 52.9496 57.9197 52.9496ZM11.6831 9.29906V57.541H9.8724C8.85779 57.541 8.03247 56.7155 8.03247 55.7011V3.7441C8.03247 2.72949 8.85792 1.90417 9.8724 1.90417H49.5728C50.5874 1.90417 51.4127 2.72962 51.4127 3.7441V5.55483H15.4274C13.3628 5.55496 11.6831 7.23455 11.6831 9.29906Z" fill="#028ABE" fill-opacity="0.7"/>
<path d="M18.1538 18.8083C17.628 18.8083 17.2018 19.2346 17.2018 19.7603V26.9506C17.2018 28.4437 18.3181 29.6878 19.8 29.8484C20.1592 29.8876 30.4207 29.8498 30.4359 29.8497C30.4393 29.8493 30.4429 29.8489 30.4463 29.8485C31.929 29.6886 33.0459 28.4442 33.0459 26.9506V14.5329C33.0459 12.9255 31.7383 11.6179 30.1309 11.6179H20.1166C18.5093 11.6179 17.2017 12.9255 17.2017 14.5329V15.2782C17.2017 15.8041 17.628 16.2303 18.1537 16.2303C18.6794 16.2303 19.1057 15.8039 19.1057 15.2782V14.5329C19.1057 13.9756 19.5592 13.5221 20.1165 13.5221H30.1308C30.6881 13.5221 31.1416 13.9754 31.1416 14.5329V24.2802C30.4142 23.5097 29.5419 22.8826 28.567 22.4383C28.9757 21.7945 29.2023 21.0403 29.2023 20.2537C29.2023 18.0048 27.3726 16.1752 25.1237 16.1752C22.8748 16.1752 21.0452 18.0048 21.0452 20.2537C21.0452 21.0404 21.2718 21.7945 21.6804 22.4383C20.7054 22.8826 19.8331 23.5097 19.1057 24.2804V19.7603C19.1058 19.2345 18.6796 18.8083 18.1538 18.8083ZM25.1238 18.0792C26.3229 18.0792 27.2982 19.0546 27.2982 20.2537C27.2982 20.98 26.9374 21.6556 26.3333 22.0611C25.9754 22.3012 25.5572 22.4281 25.1238 22.4281C24.6904 22.4281 24.2722 22.3013 23.9144 22.0611C23.3101 21.6556 22.9495 20.98 22.9495 20.2537C22.9495 19.0546 23.9248 18.0792 25.1238 18.0792ZM23.2526 23.8752C23.8287 24.1736 24.4667 24.3321 25.1238 24.3321C25.7808 24.3321 26.4187 24.1736 26.995 23.8752C28.7973 24.4262 30.2559 25.7423 30.9919 27.4819C30.8331 27.7401 30.5608 27.9216 30.2391 27.9555C30.1777 27.9593 20.175 27.9695 20.0303 27.9575L20.0095 27.9556C20.009 27.9556 20.0085 27.9555 20.008 27.9555C19.6864 27.9215 19.4143 27.74 19.2555 27.4819C19.9917 25.7423 21.4503 24.4262 23.2526 23.8752Z" fill="#028ABE" fill-opacity="0.7"/>
</g>
<defs>
<clipPath id="clip0">
<rect width="65" height="65" fill="white"/>
</clipPath>
</defs>
</svg>
