<svg width="242" height="62" viewBox="0 0 242 62" fill="none" xmlns="http://www.w3.org/2000/svg">
<circle cx="224" cy="29" r="16" stroke="#028ABE" stroke-opacity="0.7" stroke-width="4"/>
<ellipse cx="232.425" cy="42.7175" rx="2.5" ry="8" transform="rotate(-45 232.425 42.7175)" fill="#001B4A"/>
<path d="M130.672 13.1C134.871 13.1 138.161 14.1027 140.542 16.108C142.923 18.1133 144.114 20.8707 144.114 24.38C144.114 27.8893 142.923 30.6467 140.542 32.652C138.161 34.626 134.871 35.613 130.672 35.613H121.836V46H118.358V13.1H130.672ZM130.578 32.558C133.837 32.558 136.328 31.853 138.051 30.443C139.774 29.0017 140.636 26.9807 140.636 24.38C140.636 21.7167 139.774 19.68 138.051 18.27C136.328 16.8287 133.837 16.108 130.578 16.108H121.836V32.558H130.578ZM156.303 26.119C157.086 24.4583 158.245 23.205 159.781 22.359C161.347 21.513 163.274 21.09 165.562 21.09V24.333L164.763 24.286C162.162 24.286 160.125 25.085 158.653 26.683C157.18 28.281 156.444 30.5213 156.444 33.404V46H153.107V21.278H156.303V26.119ZM184.299 46.235C181.918 46.235 179.772 45.7023 177.86 44.637C175.949 43.5403 174.445 42.0363 173.348 40.125C172.252 38.2137 171.703 36.0517 171.703 33.639C171.703 31.2263 172.252 29.0643 173.348 27.153C174.445 25.2417 175.949 23.7533 177.86 22.688C179.772 21.6227 181.918 21.09 184.299 21.09C186.681 21.09 188.827 21.6227 190.738 22.688C192.65 23.7533 194.138 25.2417 195.203 27.153C196.3 29.0643 196.848 31.2263 196.848 33.639C196.848 36.0517 196.3 38.2137 195.203 40.125C194.138 42.0363 192.65 43.5403 190.738 44.637C188.827 45.7023 186.681 46.235 184.299 46.235ZM184.299 43.274C186.054 43.274 187.621 42.8823 188.999 42.099C190.409 41.2843 191.506 40.1407 192.289 38.668C193.073 37.1953 193.464 35.519 193.464 33.639C193.464 31.759 193.073 30.0827 192.289 28.61C191.506 27.1373 190.409 26.0093 188.999 25.226C187.621 24.4113 186.054 24.004 184.299 24.004C182.545 24.004 180.962 24.4113 179.552 25.226C178.174 26.0093 177.077 27.1373 176.262 28.61C175.479 30.0827 175.087 31.759 175.087 33.639C175.087 35.519 175.479 37.1953 176.262 38.668C177.077 40.1407 178.174 41.2843 179.552 42.099C180.962 42.8823 182.545 43.274 184.299 43.274Z" fill="#001B4A"/>
<path d="M47 54.84L45.8278 56.0122C42.6833 59.1568 37.5777 59.1333 34.4623 55.9599L6.63122 27.6116C3.59029 24.5142 3.5742 19.5568 6.59496 16.4397L16.8519 5.85555C19.9682 2.63984 25.117 2.6081 28.2728 5.78514L29.4 6.92" stroke="#028ABE" stroke-opacity="0.7" stroke-width="2"/>
<path d="M20.1868 27.6116C17.1458 24.5142 17.1297 19.5568 20.1505 16.4397L30.4197 5.84291C33.5313 2.63206 38.6706 2.59482 41.8284 5.76024L48.109 12.0561C51.1961 15.1506 56.1955 15.1945 59.3364 12.1545L65.9733 5.73093C69.2148 2.59365 74.4078 2.75542 77.4477 6.08839L86.9397 16.4953C89.7847 19.6146 89.7162 24.4077 86.7831 27.4443L59.3816 55.8125C56.2543 59.0502 51.0724 59.0713 47.9189 55.8591L20.1868 27.6116Z" fill="#001B4A"/>
</svg>
