<svg width="65" height="65" viewBox="0 0 65 65" fill="none" xmlns="http://www.w3.org/2000/svg">
<g clip-path="url(#clip0)">
<path d="M60.6667 13.0001C58.2768 13.0001 56.3334 14.9436 56.3334 17.3334C56.3334 19.7231 58.277 21.6666 60.6667 21.6666C63.0565 21.6666 65 19.7233 65 17.3334C65 14.9436 63.0565 13.0001 60.6667 13.0001ZM60.6667 19.5001C59.4718 19.5001 58.5 18.5284 58.5 17.3334C58.5 16.1385 59.4717 15.1666 60.6667 15.1666C61.8617 15.1666 62.8334 16.1383 62.8334 17.3334C62.8333 18.5284 61.8616 19.5001 60.6667 19.5001Z" fill="#028ABE" fill-opacity="0.7"/>
<path d="M4.33329 48.75C1.94353 48.75 0 50.6935 0 53.0833C0 55.4731 1.94353 57.4166 4.33329 57.4166C6.72318 57.4166 8.66658 55.4731 8.66658 53.0833C8.66658 50.6935 6.72318 48.75 4.33329 48.75ZM4.33329 55.25C3.13841 55.25 2.16658 54.2783 2.16658 53.0833C2.16658 51.8883 3.13828 50.9166 4.33329 50.9166C5.52817 50.9166 6.5 51.8883 6.5 53.0833C6.5 54.2783 5.5283 55.25 4.33329 55.25Z" fill="#028ABE" fill-opacity="0.7"/>
<path d="M58.5661 14.3692L49.2202 9.85717C48.6806 9.59603 48.0339 9.82353 47.7739 10.3621C47.5139 10.9005 47.7403 11.5483 48.2788 11.8083L57.6247 16.3204C57.7764 16.394 57.9368 16.4287 58.0948 16.4287C58.4978 16.4287 58.8846 16.2033 59.0708 15.8155C59.3308 15.2771 59.1045 14.6292 58.5661 14.3692Z" fill="#028ABE" fill-opacity="0.7"/>
<path d="M48.75 56.3334C46.3601 56.3334 44.4167 58.2769 44.4167 60.6667C44.4167 63.0564 46.3601 65.0001 48.75 65.0001C51.1399 65.0001 53.0833 63.0566 53.0833 60.6668C53.0833 58.277 51.1399 56.3334 48.75 56.3334ZM48.75 62.8334C47.5552 62.8334 46.5833 61.8617 46.5833 60.6667C46.5833 59.4717 47.5552 58.5001 48.75 58.5001C49.9449 58.5001 50.9167 59.4718 50.9167 60.6668C50.9167 61.8618 49.9449 62.8334 48.75 62.8334Z" fill="#028ABE" fill-opacity="0.7"/>
<path d="M46.6494 57.7028L37.3035 53.1907C36.764 52.9296 36.1173 53.1561 35.8573 53.6956C35.5973 54.234 35.8236 54.8819 36.3622 55.1419L45.7081 59.6539C45.8598 59.7275 46.0201 59.7622 46.1782 59.7622C46.5811 59.7622 46.968 59.5369 47.1543 59.149C47.4142 58.6105 47.1879 57.9628 46.6494 57.7028Z" fill="#028ABE" fill-opacity="0.7"/>
<path d="M32.5 29.2501C30.1101 29.2501 28.1667 31.1936 28.1667 33.5834C28.1667 35.9732 30.1103 37.9166 32.5 37.9166C34.8899 37.9166 36.8333 35.9731 36.8333 33.5834C36.8333 31.1936 34.8899 29.2501 32.5 29.2501ZM32.5 35.7501C31.3052 35.7501 30.3333 34.7784 30.3333 33.5834C30.3333 32.3885 31.305 31.4166 32.5 31.4166C33.6949 31.4166 34.6667 32.3883 34.6667 33.5834C34.6667 34.7784 33.6949 35.7501 32.5 35.7501Z" fill="#028ABE" fill-opacity="0.7"/>
<path d="M30.5954 30.7406L23.4162 25.1452C22.9439 24.78 22.2636 24.8613 21.8952 25.3337C21.5279 25.8061 21.6114 26.4863 22.0837 26.8547L29.2629 32.4502C29.4612 32.604 29.6952 32.6788 29.9282 32.6788C30.251 32.6788 30.5695 32.5358 30.784 32.2618C31.1512 31.7892 31.0678 31.1089 30.5954 30.7406Z" fill="#028ABE" fill-opacity="0.7"/>
<path d="M52 28.1667C45.4295 28.1667 40.0833 33.513 40.0833 40.0835C40.0833 46.6539 45.4295 52.0002 52 52.0002C58.5704 52.0002 63.9167 46.6539 63.9167 40.0835C63.9167 33.513 58.5704 28.1667 52 28.1667ZM52 49.8333C46.6234 49.8333 42.25 45.4599 42.25 40.0833C42.25 34.7067 46.6234 30.3333 52 30.3333C57.3766 30.3333 61.75 34.7067 61.75 40.0833C61.75 45.4599 57.3766 49.8333 52 49.8333Z" fill="#028ABE" fill-opacity="0.7"/>
<path d="M52 32.5C49.6101 32.5 47.6667 34.4435 47.6667 36.8333C47.6667 39.2232 49.6102 41.1666 52 41.1666C54.3899 41.1666 56.3333 39.2231 56.3333 36.8333C56.3333 34.4435 54.3899 32.5 52 32.5ZM52 39C50.8051 39 49.8333 38.0283 49.8333 36.8333C49.8333 35.6384 50.805 34.6666 52 34.6666C53.1949 34.6666 54.1667 35.6383 54.1667 36.8333C54.1667 38.0283 53.1949 39 52 39Z" fill="#028ABE" fill-opacity="0.7"/>
<path d="M55.1427 43.3333H48.8573C47.0059 43.3333 45.5 44.7991 45.5 46.5996V49.4552C45.5 49.8419 45.7058 50.1994 46.0406 50.3934C47.8562 51.4442 49.9167 52 52 52C54.0833 52 56.1438 51.4442 57.9594 50.3934C58.2942 50.2006 58.5 49.8419 58.5 49.4564V46.6007C58.5 44.7991 56.9942 43.3333 55.1427 43.3333ZM56.3333 48.8096C53.6369 50.1529 50.3631 50.1529 47.6666 48.8096V46.6007C47.6666 45.994 48.2007 45.5 48.8571 45.5H55.1426C55.7991 45.5 56.3332 45.994 56.3332 46.6007V48.8096H56.3333Z" fill="#028ABE" fill-opacity="0.7"/>
<path d="M26 41.1666C19.4296 41.1666 14.0833 46.5129 14.0833 53.0833C14.0833 59.6538 19.4296 64.9999 26 64.9999C32.5705 64.9999 37.9167 59.6536 37.9167 53.0832C37.9167 46.5127 32.5705 41.1666 26 41.1666ZM26 62.8332C20.6234 62.8332 16.25 58.4598 16.25 53.0832C16.25 47.7066 20.6234 43.3332 26 43.3332C31.3766 43.3332 35.75 47.7066 35.75 53.0832C35.75 58.4598 31.3766 62.8332 26 62.8332Z" fill="#028ABE" fill-opacity="0.7"/>
<path d="M26 45.5001C23.6101 45.5001 21.6667 47.4436 21.6667 49.8334C21.6667 52.2232 23.6103 54.1666 26 54.1666C28.3898 54.1666 30.3333 52.2231 30.3333 49.8334C30.3333 47.4436 28.3899 45.5001 26 45.5001ZM26 52.0001C24.8052 52.0001 23.8333 51.0284 23.8333 49.8334C23.8333 48.6385 24.805 47.6666 26 47.6666C27.1949 47.6666 28.1667 48.6383 28.1667 49.8334C28.1667 51.0284 27.1949 52.0001 26 52.0001Z" fill="#028ABE" fill-opacity="0.7"/>
<path d="M29.1427 56.3334H22.8573C21.0059 56.3334 19.5 57.7992 19.5 59.5996V62.4553C19.5 62.842 19.7058 63.1995 20.0406 63.3935C21.8562 64.4443 23.9167 65.0001 26 65.0001C28.0833 65.0001 30.1438 64.4443 31.9594 63.3935C32.2942 63.2006 32.5 62.8421 32.5 62.4564V59.6008C32.5 57.7992 30.9942 56.3334 29.1427 56.3334ZM30.3333 61.8096C27.6368 63.1529 24.3631 63.1529 21.6666 61.8096V59.6008C21.6666 58.9941 22.2007 58.5001 22.8571 58.5001H29.1426C29.7991 58.5001 30.3332 58.9941 30.3332 59.6008V61.8096H30.3333Z" fill="#028ABE" fill-opacity="0.7"/>
<path d="M11.9167 14.0832C5.34625 14.0832 0 19.4294 0 25.9999C0 32.5703 5.34625 37.9166 11.9167 37.9166C18.4872 37.9166 23.8334 32.5703 23.8334 25.9999C23.8333 19.4294 18.487 14.0832 11.9167 14.0832ZM11.9167 35.7499C6.54012 35.7499 2.16671 31.3765 2.16671 25.9999C2.16671 20.6233 6.54012 16.2499 11.9167 16.2499C17.2933 16.2499 21.6667 20.6233 21.6667 25.9999C21.6667 31.3765 17.2933 35.7499 11.9167 35.7499Z" fill="#028ABE" fill-opacity="0.7"/>
<path d="M11.9167 18.4168C9.52683 18.4168 7.58344 20.3603 7.58344 22.7501C7.58344 25.1399 9.52696 27.0834 11.9167 27.0834C14.3066 27.0834 16.25 25.1399 16.25 22.7501C16.25 20.3603 14.3065 18.4168 11.9167 18.4168ZM11.9167 24.9168C10.7218 24.9168 9.75002 23.9451 9.75002 22.7501C9.75002 21.5551 10.7217 20.5834 11.9167 20.5834C13.1116 20.5834 14.0834 21.5551 14.0834 22.7501C14.0834 23.9451 13.1116 24.9168 11.9167 24.9168Z" fill="#028ABE" fill-opacity="0.7"/>
<path d="M15.0594 29.2501H8.77396C6.92261 29.2501 5.41669 30.7159 5.41669 32.5163V35.372C5.41669 35.7587 5.62248 36.1162 5.95725 36.3102C7.77294 37.361 9.83339 37.9168 11.9167 37.9168C14 37.9168 16.0604 37.361 17.8761 36.3102C18.2109 36.1173 18.4167 35.7587 18.4167 35.3731V32.5175C18.4167 30.7159 16.9108 29.2501 15.0594 29.2501ZM16.25 34.7263C13.5536 36.0696 10.2798 36.0696 7.58327 34.7263V32.5175C7.58327 31.9107 8.11736 31.4168 8.77384 31.4168H15.0593C15.7158 31.4168 16.2499 31.9107 16.2499 32.5175V34.7263H16.25Z" fill="#028ABE" fill-opacity="0.7"/>
<path d="M37.9166 0C31.3462 0 25.9999 5.34625 25.9999 11.9167C25.9999 18.4872 31.3462 23.8334 37.9166 23.8334C44.4871 23.8334 49.8333 18.4872 49.8333 11.9167C49.8332 5.34625 44.487 0 37.9166 0ZM37.9166 21.6667C32.5401 21.6667 28.1666 17.2933 28.1666 11.9167C28.1666 6.54012 32.5401 2.16671 37.9166 2.16671C43.2932 2.16671 47.6666 6.54012 47.6666 11.9167C47.6666 17.2933 43.2932 21.6667 37.9166 21.6667Z" fill="#028ABE" fill-opacity="0.7"/>
<path d="M37.9168 4.33325C35.5269 4.33325 33.5835 6.27678 33.5835 8.66654C33.5835 11.0563 35.527 12.9998 37.9168 12.9998C40.3066 12.9998 42.2501 11.0564 42.2501 8.66667C42.2501 6.2769 40.3066 4.33325 37.9168 4.33325ZM37.9168 10.8333C36.7219 10.8333 35.7501 9.86155 35.7501 8.66654C35.7501 7.47166 36.7218 6.49983 37.9168 6.49983C39.1118 6.49983 40.0835 7.47153 40.0835 8.66654C40.0834 9.86155 39.1117 10.8333 37.9168 10.8333Z" fill="#028ABE" fill-opacity="0.7"/>
<path d="M41.0594 15.1667H34.774C32.9226 15.1667 31.4167 16.6325 31.4167 18.4329V21.2886C31.4167 21.6753 31.6225 22.0328 31.9573 22.2268C33.7729 23.2776 35.8334 23.8334 37.9167 23.8334C40 23.8334 42.0604 23.2776 43.8761 22.2268C44.2109 22.034 44.4167 21.6753 44.4167 21.2898V18.4341C44.4167 16.6324 42.9108 15.1667 41.0594 15.1667ZM42.25 20.6429C39.5536 21.9862 36.2797 21.9862 33.5833 20.6429V18.4341C33.5833 17.8274 34.1174 17.3334 34.7738 17.3334H41.0593C41.7157 17.3334 42.2498 17.8274 42.2498 18.4341V20.6429H42.25Z" fill="#028ABE" fill-opacity="0.7"/>
<path d="M27.9078 11.2113C27.5189 10.7584 26.8353 10.7042 26.3803 11.0932L18.8728 17.5174C18.4178 17.9063 18.3647 18.5899 18.7535 19.0449C18.9681 19.2951 19.2714 19.4241 19.5768 19.4241C19.826 19.4241 20.0763 19.3386 20.281 19.163L27.7885 12.7388C28.2437 12.3499 28.2967 11.6663 27.9078 11.2113Z" fill="#028ABE" fill-opacity="0.7"/>
<path d="M51.7833 28.6011L45.2833 19.9344C44.9247 19.4546 44.2455 19.3602 43.7666 19.7177C43.2877 20.0764 43.1914 20.7556 43.5499 21.2333L50.0499 29.9C50.2633 30.1839 50.5883 30.3333 50.9176 30.3333C51.143 30.3333 51.3716 30.2628 51.5666 30.1166C52.0455 29.7581 52.1419 29.0789 51.7833 28.6011Z" fill="#028ABE" fill-opacity="0.7"/>
<path d="M42.8924 43.6659C42.5338 43.187 41.8546 43.0907 41.3757 43.4492L35.3242 47.9873C34.8454 48.3459 34.749 49.0251 35.1075 49.5028C35.3209 49.7867 35.6459 49.9361 35.9752 49.9361C36.2016 49.9361 36.4291 49.8646 36.6242 49.7194L42.6757 45.1813C43.1546 44.8229 43.251 44.1436 42.8924 43.6659Z" fill="#028ABE" fill-opacity="0.7"/>
<path d="M15.1668 51.9999H7.58335C6.9854 51.9999 6.50006 52.4841 6.50006 53.0832C6.50006 53.6823 6.9854 54.1665 7.58335 54.1665H15.1666C15.7646 54.1665 16.2499 53.6823 16.2499 53.0832C16.2499 52.4841 15.7647 51.9999 15.1668 51.9999Z" fill="#028ABE" fill-opacity="0.7"/>
<path d="M11.9167 0C9.52678 0 7.58325 1.94353 7.58325 4.33329C7.58325 6.72318 9.52678 8.66658 11.9165 8.66658C14.3064 8.66658 16.2498 6.72306 16.2498 4.33329C16.25 1.94353 14.3064 0 11.9167 0ZM11.9167 6.5C10.7218 6.5 9.74996 5.5283 9.74996 4.33329C9.74996 3.13841 10.7217 2.16658 11.9167 2.16658C13.1116 2.16658 14.0834 3.13828 14.0834 4.33329C14.0833 5.5283 13.1116 6.5 11.9167 6.5Z" fill="#028ABE" fill-opacity="0.7"/>
<path d="M11.9167 6.50006C11.3188 6.50006 10.8334 6.98426 10.8334 7.58335V15.1666C10.8334 15.7657 11.3188 16.2499 11.9167 16.2499C12.5147 16.2499 13 15.7657 13 15.1666V7.58335C13 6.98426 12.5147 6.50006 11.9167 6.50006Z" fill="#028ABE" fill-opacity="0.7"/>
</g>
<defs>
<clipPath id="clip0">
<rect width="65" height="65" fill="white"/>
</clipPath>
</defs>
</svg>
